<?xml version="1.0" encoding="UTF-8"?>
<svg width="48px" height="48px" viewBox="0 0 48 48" version="1.1" xmlns="http://www.w3.org/2000/svg" xmlns:xlink="http://www.w3.org/1999/xlink">
    <title>icon</title>
    <g id="MI" stroke="none" stroke-width="1" fill="none" fill-rule="evenodd">
        <g id="02-welcome_start-page" transform="translate(-1186.000000, -340.000000)" fill="#fff">
            <g id="block-2" transform="translate(922.000000, 287.000000)">
                <g id="block" transform="translate(196.000000, 0.000000)">
                    <g id="icon" transform="translate(68.000000, 53.000000)">
                        <path d="M3.42885334,0 C1.549205,0 0.000150738725,1.5489112 0.000150738725,3.42857143 L0.000150738725,14.8571429 C-0.021553403,16.4026543 2.30786043,16.4026543 2.28600343,14.8571429 L2.28600343,11.4274554 L45.7143002,11.4274554 L45.7143002,44.5714286 C45.7143002,45.2243389 45.2243564,45.7142857 44.5714503,45.7142857 L3.42885334,45.7142857 C2.77594662,45.7142857 2.28600343,45.2243389 2.28600343,44.5714286 L2.28600343,23.998884 C2.30786043,22.4533726 -0.0215536316,22.4533726 0.000150738725,23.998884 L0.000150738725,44.5714286 C0.000150738725,46.4510891 1.549205,48 3.42885334,48 L44.5714503,48 C46.4510989,48 48,46.4510891 48,44.5714286 L48,3.42857143 C48,1.5489112 46.4510989,0 44.5714503,0 L3.42885334,0 Z M3.42885334,2.28571429 L44.5714503,2.28571429 C45.2243564,2.28571429 45.7143002,2.77566057 45.7143002,3.42857143 L45.7143002,9.14174114 L2.28600343,9.14174114 L2.28600343,3.42857143 C2.28600343,2.77566057 2.77594662,2.28571429 3.42885334,2.28571429 Z M5.71455317,4.57142857 C5.08337488,4.57142857 4.57170326,5.08310343 4.57170326,5.71428571 C4.57170326,6.345468 5.08337488,6.85714286 5.71455317,6.85714286 C6.34573147,6.85714286 6.85740309,6.345468 6.85740309,5.71428571 C6.85740309,5.08310343 6.34573147,4.57142857 5.71455317,4.57142857 Z M10.2859528,4.57142857 C9.65477454,4.57142857 9.14310292,5.08310343 9.14310292,5.71428571 C9.14310292,6.345468 9.65477454,6.85714286 10.2859528,6.85714286 C10.9171311,6.85714286 11.4288027,6.345468 11.4288027,5.71428571 C11.4288027,5.08310343 10.9171311,4.57142857 10.2859528,4.57142857 Z M14.8573525,4.57142857 C14.2261742,4.57142857 13.7145026,5.08310343 13.7145026,5.71428571 C13.7145026,6.345468 14.2261742,6.85714286 14.8573525,6.85714286 C15.4885308,6.85714286 16.0002024,6.345468 16.0002024,5.71428571 C16.0002024,5.08310343 15.4885308,4.57142857 14.8573525,4.57142857 Z M42.350482,4.57142857 C42.3285164,4.57153943 42.3065566,4.57228914 42.2846344,4.57366057 L30.8572513,4.57366057 C29.2357033,4.46959886 29.2357033,6.95897257 30.8572513,6.85491086 L42.2846344,6.85491086 C43.8616805,6.95787486 43.9308406,4.55951771 42.350482,4.57142857 Z M30.8572513,18.2879463 C29.2992817,18.2533909 29.2992817,20.6082097 30.8572513,20.5736606 L32.6663918,20.5736606 L26.2847356,26.9553571 L22.5224823,23.1930806 C22.0762223,22.7472731 21.3526817,22.7472731 20.9064217,23.1930806 L14.0482056,30.0524554 C12.970901,31.1323206 14.5903107,32.7472737 15.6676154,31.6674109 L21.716684,25.6183034 L25.4789373,29.3816966 C25.9251973,29.8275034 26.6487385,29.8275034 27.0949985,29.3816966 L34.286917,22.186384 L34.286917,24.003348 C34.252383,25.5613103 36.6071532,25.5613103 36.5726169,24.003348 L36.5726169,19.4308034 C36.5725546,18.7996463 36.0609207,18.2880091 35.4297669,18.2879463 L30.8572513,18.2879463 Z M35.4130259,26.2721963 C34.7827322,26.2809606 34.2784194,26.7982606 34.285801,27.4285714 L34.285801,37.7165177 C34.285505,39.2413674 36.5723191,39.2413674 36.5726169,37.7165177 L36.5726169,27.4285714 C36.5801757,26.7855829 36.055991,26.2629223 35.4130259,26.2721963 Z M21.6954789,27.9854909 C21.0656149,27.9965057 20.5634575,28.5151909 20.5727181,29.1450891 L20.5727181,37.7165177 C20.4826146,39.3256874 22.9451819,39.3256874 22.8550699,37.7165177 L22.8550699,29.1450891 C22.8645727,28.5008309 22.3397354,27.9761091 21.6954789,27.9854909 Z M30.8405102,28.5546874 C30.2088902,28.5633263 29.7040374,29.0826726 29.7132854,29.7142857 L29.7132854,37.7165177 C29.7132854,39.2410714 32.0001012,39.2410714 32.0001012,37.7165177 L32.0001012,29.7142857 C32.009604,29.0699863 31.4848056,28.5452429 30.8405102,28.5546874 Z M26.2679946,30.8404017 C25.635934,30.8490406 25.1308978,31.3690691 25.1407697,32.001116 L25.1407697,37.7165177 C25.1410657,39.2407731 27.4278833,39.2407731 27.4275856,37.7165177 L27.4275856,32.001116 C27.4377363,31.3563829 26.9127345,30.8309423 26.2679946,30.8404017 Z M12.5716527,32.001116 C11.9404744,32.001116 11.4288027,32.5127897 11.4288027,33.1439731 C11.4288027,33.7751566 11.9404744,34.2868303 12.5716527,34.2868303 C13.202831,34.2868303 13.7145026,33.7751566 13.7145026,33.1439731 C13.7145026,32.5127897 13.202831,32.001116 12.5716527,32.001116 Z M17.1263113,32.5580354 C16.4968953,32.5673223 15.9934362,33.0837183 16.0002024,33.7131697 L16.0002024,37.7165177 C15.9999064,39.2413674 18.2867222,39.2413674 18.2870182,37.7165177 L18.2870182,33.7131697 C18.2939296,33.0702114 17.7692244,32.5480771 17.1263113,32.5580354 Z M12.5537956,35.4129463 C11.9221745,35.4222331 11.4178125,35.9420434 11.4276868,36.5736606 L11.4276868,37.7165177 C11.4270239,39.241732 13.7138397,39.241732 13.7145026,37.7165177 L13.7145026,36.5736606 C13.7246534,35.9285211 13.1989304,35.4029103 12.5537956,35.4129463 Z" id="Shape"></path>
                    </g>
                </g>
            </g>
        </g>
    </g>
</svg>