<svg width="216" height="216" xmlns="http://www.w3.org/2000/svg"><g fill="none" fill-rule="evenodd"><path fill="#C8F5FC" d="M67.311 18.785H165V83.42H67.311z"/><g fill="#A2E9FC"><path d="M81.644 26.27h1.935v49.86h-1.935zM85.843 40.025h1.935V76.13h-1.935zM90.042 33.703h1.935V76.13h-1.935zM94.254 44.571h1.935v31.56h-1.935zM98.321 44.545h1.935V76.13h-1.935zM102.52 37.216h1.934V76.13h-1.935zM106.718 31.887h1.935V76.13h-1.935zM110.917 28.151h1.935v47.98h-1.935zM115.076 27.106h1.935V76.13h-1.935zM119.288 31.926h1.935V76.13h-1.935zM123.487 49.09h1.935v27.04h-1.935zM127.685 44.597h1.935V76.13h-1.935zM131.752 38.118h1.935V76.13h-1.935zM135.964 44.61h1.935v31.52h-1.935zM140.163 31.913h1.935V76.13h-1.935zM144.362 31.9h1.935v44.23h-1.935zM148.745 44.571h1.935v31.56h-1.935z"/><path d="M77.643 76.091h76.985v1H77.643z"/></g><path d="M94.201 45.106a3.978 3.978 0 0 1-3.277-1.698l-5.068-7.184a3.771 3.771 0 0 0-3.132-1.594 3.756 3.756 0 0 0-3.08 1.698l-3.817 5.84a3.96 3.96 0 0 1-3.922 1.776c-1.567-.222-2.817-1.28-3.278-2.783l-8.516-27.549c-.513-1.645-1.948-2.677-3.685-2.625-1.724.04-3.12 1.15-3.54 2.808-2.317 9.144-5.502 21.658-7.503 29.339-.013.065-.092.117-.158.091-.066-.013-.118-.091-.092-.156 2.014-7.681 5.199-20.195 7.502-29.339.448-1.776 1.935-2.965 3.79-3.004 1.857-.053 3.397 1.058 3.936 2.821l8.503 27.55a3.725 3.725 0 0 0 3.067 2.599 3.721 3.721 0 0 0 3.672-1.66l3.817-5.838a4.024 4.024 0 0 1 6.647-.118l5.067 7.184a3.684 3.684 0 0 0 3.41 1.568 3.693 3.693 0 0 0 3.066-2.155l18.545-40.35C116.84.85 118.261-.039 119.907 0c1.632.04 3.027.993 3.632 2.508l15.584 38.679c.553 1.371 1.817 2.26 3.304 2.338 1.487.065 2.83-.693 3.514-2.012l2.672-5.12c.698-1.346 2.04-2.156 3.567-2.156 1.527 0 2.856.81 3.567 2.156l3.922 7.524c.04.065.014.143-.052.17-.066.039-.145.013-.171-.053l-3.923-7.524a3.697 3.697 0 0 0-3.33-2.011 3.697 3.697 0 0 0-3.33 2.011l-2.672 5.12a3.985 3.985 0 0 1-3.764 2.143c-1.593-.078-2.935-1.032-3.527-2.495L123.316 2.601c-.566-1.411-1.87-2.3-3.396-2.339a3.7 3.7 0 0 0-3.501 2.182L97.86 42.768a3.956 3.956 0 0 1-3.29 2.312c-.119.013-.25.026-.369.026Z" fill="#0A9CE5"/><g><path d="M14.584 130V29.627H.026v91.739c0 7.119 8.806 8.634 14.558 8.634Z" fill="#C8F5FC"/><path d="M14.11 27.132c13.833-.535 39.039 0 39.039 0v92.784c-8.042-.614-33.511-1.83-38.618 5.473V31.56C8.713 31.691.408 30.881 0 29.706c-.013-2.443 10.32-2.43 14.11-2.574Z" fill="#A2E9FC"/><path d="m39.46 69.09-.276.012V108.5c1.71-.013 3.382 0 4.962.026V69.09H39.46ZM32.721 50.24v58.507c1.593-.104 3.185-.17 4.765-.209V50.24H32.72ZM26.587 59.358c-.039.013-.079.013-.118.026v50.03a69.422 69.422 0 0 1 4.567-.536V59.37h-4.449v-.013ZM19.927 65.876c-.04.013-.079.039-.118.052v45.092c1.474-.535 3.159-.967 4.962-1.306V65.876h-4.844ZM14.584 37.726v75.671c.54-.26.802-.483 3.54-1.763V37.726h-3.54Z" fill="#81DCFC"/><path d="M14.689 113.228a.138.138 0 0 1-.119-.066c-.039-.065-.013-.143.053-.183 4.857-2.586 14.176-5.46 30.97-4.44.237.012.422.025.566.038.08 0 .132.066.119.144 0 .078-.066.13-.132.118-.144-.013-.329-.013-.566-.04-16.742-1.018-26.008 1.83-30.838 4.403-.014.026-.04.026-.053.026Z" fill="#81DCFC"/><path d="M14.926 128.798c-.026 0-.04 0-.066-.013-.066-.039-.079-.117-.053-.183 5.463-9.562 36.578-6.78 40.816-6.348V29.732c-1.974-.04-25.732-.51-38.894 0-.434.013-1.027.039-1.711.052-3.185.091-8.516.235-11.267.784-.066.013-.145-.026-.158-.105-.013-.065.027-.144.106-.157 2.764-.548 8.12-.705 11.319-.783.684-.013 1.277-.04 1.711-.053 13.689-.535 38.789 0 39.039 0 .066 0 .131.066.131.131v92.797c0 .039-.013.078-.04.091a.15.15 0 0 1-.104.04c-2.685-.275-12.188-1.124-21.626-.497-10.516.705-16.94 2.952-19.085 6.7a.138.138 0 0 1-.118.066Z" fill="#0A9CE5"/></g><g><g transform="translate(71.105 204.35)" fill-rule="nonzero"><ellipse fill="#50A0C2" cx="48.947" cy="5.825" rx="48.947" ry="5.825"/><ellipse fill="#3383A5" cx="50.255" cy="5.431" rx="28.364" ry="2.873"/></g><path d="M134.058 179.66c1.06.485 1.923.931 2.55 1.285.523.276.798.447 1.099.761 0 0 .706.722.928 1.798.366 1.758-.89 3.673-2.262 4.71-.314.236-2.629 1.994-4.76.983-1.452-.682-1.949-2.256-2.145-2.912-.157-.499-.745-2.414.353-4.25 1.36-2.244 4.041-2.362 4.237-2.375Z" fill="#F7B2B2" fill-rule="nonzero"/><path d="M140.557 182.336c.34.066.916.236 1.452.695 1.15.984 1.164 2.493 1.164 2.795 0 .669-.17 1.272-1.046 2.847-1.007 1.81-1.648 2.584-2.668 4.185a43.994 43.994 0 0 0-2.092 3.608c-1.478 2.899-1.203 3.397-2.263 4.657-.536.643-2.157 2.571-4.171 2.27-1.23-.184-2.04-1.129-2.38-1.575.261-.236.654-.616 1.098-1.102 2.302-2.506 3.309-5.011 3.649-5.812.954-2.217 2.955-5.916 7.257-12.568Z" fill="#BF2652"/><path d="M136.961 180.998c-.104.46-.287 1.168-.64 1.981-.432.984-1.073 2.453-2.55 3.437a5.835 5.835 0 0 1-1.74.761c-1.124 4.343-2.236 8.685-3.36 13.027-.079.119-.367.525-.288 1.05.091.67.68.997.876 1.102.941.538 2.014.079 2.197 0 .784-.328 1.242-.931 1.621-1.509 1.073-1.653 1.36-2.952 1.857-4.368.772-2.178 1.753-3.713 2.197-4.422.576-.892 2.053-3.03 3.191-4.657.314-.459.785-1.115.929-2.099.065-.446.13-1.482-.406-2.44-.706-1.246-2.223-1.955-3.884-1.863Z" fill="#FC6C85"/><path d="M134.437 186.206a9.757 9.757 0 0 1 1.648-.236c1.988-.092 3.596.472 4.577.932-.353.524-.72 1.05-1.072 1.574a10.64 10.64 0 0 0-2.354-.499 11.044 11.044 0 0 0-3.243.17c.157-.642.3-1.285.444-1.94ZM133.43 189.788c.445-.066.929-.118 1.452-.144a15.08 15.08 0 0 1 3.714.288c-.419.617-.837 1.246-1.242 1.863a11.473 11.473 0 0 0-2.093-.21c-.902 0-1.674.105-2.288.236.144-.682.3-1.351.457-2.033Z" fill="#BF2652"/><path d="M133.862 186.298c.13-.065.3-.157.458-.288.183-.145.314-.29.405-.407a44.062 44.062 0 0 1-.98 4.618 42.614 42.614 0 0 1-2.315 6.376c.353-1.535.706-3.07 1.072-4.618a519.75 519.75 0 0 1 1.36-5.68ZM140.322 187.4c.314-.459.785-1.115.929-2.099.065-.446.13-1.482-.406-2.44-.654-1.168-2.014-1.85-3.53-1.876 0 1.272.915 4.316 3.007 6.415ZM116.26 71.872a116.816 116.816 0 0 1-2.615 5.59c-3.714 7.412-5.23 8.422-6.957 12.213-3.335 7.36-2.602 14.523-2.262 17.803a39.357 39.357 0 0 0 3.308 12.214c8.696.695 17.393 1.39 26.089 2.099-1.792-15.297-3.596-30.594-5.388-45.891-4.054-1.351-8.108-2.69-12.175-4.028Z" fill="#BF2652"/><path d="M122.694 195.783c.105-.262.262-.524.523-1.167.327-.8.34-.971.523-1.286.393-.708 1.007-1.063 1.282-1.22.942-.551 2.602-.932 4.054 0 1.255.813 1.922 2.322 1.687 3.844-.066.472-.131.944-.17 1.456a30.562 30.562 0 0 0-.118 3.201c-.052.368-.17.8-.458 1.22-1.007 1.456-3.53 1.81-5.27.88-2.118-1.142-2.34-3.766-2.38-4.251-.052-.42-.144-1.575.327-2.677Z" fill="#F7B2B2" fill-rule="nonzero"/><g fill-rule="nonzero"><path d="M108.388 114.024c-.64 2.73-1.282 5.445-1.922 8.174-.55 2.348.784 4.723 2.798 4.985 7.075.945 14.15 1.902 21.224 2.847 1.857.25 3.518-1.404 3.649-3.647l.549-9.499c.13-2.177-1.256-4.067-3.073-4.21l-19.864-1.523c-1.53-.118-2.943 1.076-3.361 2.873ZM102.046 157.252c.196.984.588 2.401 1.438 3.923 1.19 2.138 2.68 3.385 3.649 4.185 3.897 3.214 14.476 9.157 22.44 22.25a9.208 9.208 0 0 0 2.092-.787c3.204-1.666 4.512-4.789 4.956-6.022-.549-.59-1.347-1.47-2.223-2.624-2.707-3.542-3.256-5.707-4.694-8.252-2.354-4.158-5.519-6.56-9.651-9.682a48.795 48.795 0 0 0-6.787-4.316 9.908 9.908 0 0 0-3.518-1.705c-1.046-.263-4.158-1.05-6.264.787-.837.748-1.242 1.653-1.438 2.243Z" fill="#35489E"/><path d="M111.683 158.866c21.146 11.742 21.46 27.039 22.035 26.488 1.74-1.64 2.563-3.621 2.89-4.553-.549-.59-1.347-1.47-2.223-2.624-2.707-3.542-3.256-5.707-4.695-8.252-2.353-4.158-5.518-6.56-9.65-9.682a48.795 48.795 0 0 0-6.787-4.316c-1.112-.407-1.949.263-1.57 2.939Z" fill="#262F69"/><path d="M106.217 122.316a135.25 135.25 0 0 0-2.092 7.727c-1.635 6.835-3.06 13.001-2.733 20.676.104 2.374.34 4.303.523 5.497.065.577.235 1.404.784 2.23 1.256 1.89 3.78 2.637 5.872 2.23 2.367-.459 4.276-2.427 4.825-4.972a85.485 85.485 0 0 1 1.308-5.628c1.661-6.245 3.714-11.19 4.172-12.306 1.438-3.437 1.687-3.476 2.092-5.103.575-2.388 1.478-6.127-.523-9.42-1.844-3.043-6.028-5.51-9.912-4.316-2.393.708-3.767 2.545-4.316 3.385Z" fill="#35489E"/><path d="M111.696 158.918a6.81 6.81 0 0 0 1.7-3.227 85.485 85.485 0 0 1 1.308-5.628c1.661-6.245 3.714-11.19 4.172-12.306 1.438-3.437 1.687-3.477 2.092-5.103.575-2.388 1.478-6.127-.523-9.42-.222-.354-.47-.708-.745-1.05-1.073-1.298-9.704 30.149-8.004 36.734Z" fill="#262F69"/><path d="M105.864 123.575a187.201 187.201 0 0 0-2.485 9.551c-.653 2.86-1.006 4.421-1.346 6.678-.694 4.657-.707 8.186-.694 9.078.014 2.283.17 5.156.694 8.462.313-4.356.693-8.816 1.176-13.395a423.454 423.454 0 0 1 2.655-20.374Z" fill="#5067BC"/><g><path d="M131.652 158.04a52.91 52.91 0 0 1 1.308 4.316c.366 1.43 1.7 6.848 1.7 14.129s-1.321 13.513-2.733 18.196a9.073 9.073 0 0 0-.654 2.1 8.982 8.982 0 0 0-.131 1.574 4.186 4.186 0 0 1-1.83-.132c-1.648-.498-2.04-1.823-3.65-2.755-.6-.34-1.53-.721-2.863-.787.183-.813.431-1.98.654-3.398.34-2.099.876-6.297.523-13.093-.366-6.94-1.478-13.197-2.616-18.065.013-.433.144-1.928 1.308-3.135 1.177-1.233 2.668-1.378 3.256-1.443 3.139-.302 5.401 2.138 5.728 2.492Z" fill="#35489E"/><path d="M134.267 123.352a153.396 153.396 0 0 1-.13 5.76c-.432 10.94-1.648 15.638-1.831 25.648-.04 2.256-.013 4.04 0 4.972-.052.603-.21 1.679-.916 2.742-.902 1.39-2.72 2.82-4.825 2.623-2.25-.21-3.53-2.164-4.172-3.135-1.268-1.915-1.464-3.844-1.569-4.841-.327-3.057-.837-6.9-1.7-12.175a51.63 51.63 0 0 0-1.83-7.07c-.759-2.257-1.4-3.661-1.7-6.154-.301-2.584.039-4.08.13-4.447.105-.407.589-2.322 2.093-4.185.666-.827 4.197-4.972 9.389-4.316 4.328.55 6.682 4 7.061 4.578Z" fill="#35489E"/><path d="M134.267 123.352a153.396 153.396 0 0 1-.13 5.76c-.432 10.94-1.648 15.638-1.831 25.648-.04 2.256-.013 4.04 0 4.972-.052.603-.21 1.679-.916 2.742-1.7-3.792-4.563-23.825-2.654-43.386 3.348 1.05 5.191 3.766 5.531 4.264Z" fill="#262F69"/><path d="M131.652 158.04a52.91 52.91 0 0 1 1.308 4.316c.366 1.43 1.7 6.848 1.7 14.129s-1.321 13.513-2.733 18.196c-.236.525-.785 3.214-.785 3.66a4.186 4.186 0 0 1-1.83-.13c0-7.859 6.132-14.602 1.974-35.186-.392-1.955-.902-3.989-1.334-6.573.994.617 1.543 1.404 1.7 1.587Z" fill="#262F69"/><path d="M3.087 20.772a.072.072 0 0 1-.065-.04c-.81-2.243-1.452-4.302-1.91-6.113l-.025-.092C.903 13.82.68 12.94.014 12.022c-.026-.027-.013-.066.013-.092.026-.026.066-.013.092.013.68.931.902 1.824 1.085 2.545l.026.092c.458 1.81 1.099 3.87 1.91 6.1.013.04 0 .066-.04.079 0 .013-.013.013-.013.013ZM14.687 41.671c-.026 0-.053-.026-.066-.052a143.65 143.65 0 0 1-2.21-13.566 144.05 144.05 0 0 1-.797-22.158c0-.04.026-.066.065-.066.04 0 .065.027.065.066-.3 7.373-.039 14.825.798 22.145a139.94 139.94 0 0 0 2.21 13.552c.013.04-.013.066-.052.079h-.013ZM13.444 76.83h-.026c-.039-.013-.052-.052-.039-.078 2-5.97 3.047-12.175 3.125-18.433a59.582 59.582 0 0 0-1.438-13.854c-.013-.039.013-.065.052-.078.04-.013.066.013.079.052a61.372 61.372 0 0 1 1.438 13.893 60.575 60.575 0 0 1-3.138 18.472c0 .013-.026.027-.053.027Z" fill-opacity=".3" fill="#828282" style="mix-blend-mode:normal" transform="translate(114.69 118.704)"/></g><path d="M106.78 120.48c-.301.996-.615 2.006-.916 3.003.98.486 2.119.919 3.387 1.22 6.186 1.444 11.534-1.35 13.522-2.532a11.844 11.844 0 0 1-1.256-.957c-.457-.394-.85-.774-1.177-1.128a20.043 20.043 0 0 1-5.126 1.259c-3.635.407-6.617-.289-8.434-.866Z" fill="#262F69"/><path d="M14.008 16.919c-.04 0-.065-.027-.065-.066a32.972 32.972 0 0 1 .026-2.545 29.03 29.03 0 0 1 .157-2.125c0-.04.039-.066.065-.053.04 0 .065.04.052.066a57.336 57.336 0 0 0-.157 2.112c-.039.84-.039 1.692-.026 2.545.013.04-.013.066-.052.066ZM12.203 15.83c-.039 0-.065-.026-.065-.066a35.8 35.8 0 0 1 .288-3.135c0-.04.039-.066.078-.053.04 0 .066.04.052.079a35.971 35.971 0 0 0-.287 3.122c0 .027-.026.053-.066.053Z" fill-opacity=".3" fill="#828282" style="mix-blend-mode:normal" transform="translate(101.337 111.143)"/></g><path d="M116.522 68.514a84.457 84.457 0 0 0-3.518 10.863c-1.74 6.9-2.144 12.187-2.354 14.523-.549 6.166-1.857 15.283-5.217 27.878.98.603 3.439 1.928 6.787 1.837 4.446-.132 7.349-2.703 8.094-3.398.654-.21 1.7-.499 2.995-.656 1.674-.197 5.518-.643 8.605 1.705.575.433 1.438 1.207 2.223 2.493a53.302 53.302 0 0 0 1.177-11.256c-.013-8.764-2.21-13.71-3.257-19.758-.954-5.55-1.216-13.539 2.093-23.956-5.885-.091-11.403-3.056-17.628-.275Z" fill="#FFF9B0"/><path d="M116.522 68.514a84.457 84.457 0 0 0-3.518 10.863c-1.74 6.9-2.144 12.187-2.354 14.523-.549 6.166-1.857 15.283-5.217 27.878.248.144.575.341.993.55.707.355 5.663-28.114 7.755-34.28.523-2.033 1.805-4.473 2.498-6.218 2.72-6.822 3.151-11.69 3.661-14.392-1.255.17-2.523.499-3.818 1.076Z" fill="#F9C973" fill-rule="nonzero"/><path d="M111.683 122.381c-1.307 0-2.406-.249-3.125-.472a10.907 10.907 0 0 1-1.896-.787c-.026-.013-.04-.053-.026-.092.013-.026.052-.04.091-.026.602.315 1.23.577 1.87.774.746.236 1.936.498 3.348.46 2.25-.053 4.067-.88 5.192-1.562a.069.069 0 0 1 .091.026.07.07 0 0 1-.026.092c-1.138.682-2.969 1.522-5.257 1.574-.092.013-.17.013-.262.013ZM122.694 80.347c-2.262 14.484 4.603 23.904.615 39.227 1.674-.197 5.518-.643 8.605 1.705.575.433 1.438 1.207 2.223 2.493a53.29 53.29 0 0 0 1.177-11.256c-.013-8.764-2.21-13.71-3.257-19.758-.954-5.55-1.216-13.539 2.093-23.955-5.885-.105-9.455 2.636-11.456 11.544Z" fill="#F9C973" fill-rule="nonzero"/><path d="M111.893 123.706c-.458 0-.929-.026-1.387-.078-1.948-.223-3.373-.866-3.896-1.129a9.99 9.99 0 0 1-1.204-.708c-.026-.026-.039-.066-.013-.092.027-.026.066-.04.092-.013.38.262.771.499 1.19.708.51.263 1.922.893 3.845 1.116 1.176.13 2.366.091 3.53-.118 1.138-.21 2.25-.578 3.296-1.116a12.203 12.203 0 0 0 3.047-2.177.063.063 0 0 1 .091 0 .064.064 0 0 1 0 .091 12.177 12.177 0 0 1-3.086 2.204c-1.06.538-2.184.919-3.335 1.129-.706.118-1.438.183-2.17.183ZM122.263 74.05c-.419 0-.942-.052-1.517-.249a4.81 4.81 0 0 1-.903-.446c-.026-.013-.039-.066-.026-.092.026-.026.066-.04.092-.026.274.17.575.315.876.433.863.301 1.595.249 2.08.21a6.66 6.66 0 0 0 1.804-.407c.04-.013.065 0 .078.04.013.039 0 .065-.039.078a6.482 6.482 0 0 1-1.844.42c-.157.013-.366.04-.601.04ZM122.498 72.804a4.45 4.45 0 0 1-.89-.092c-.313-.066-.745-.157-1.215-.472-.249-.17-.772-.512-1.007-1.168a2.197 2.197 0 0 1-.118-.721c0-.04.04-.066.065-.066.04 0 .066.026.066.066 0 .236.026.459.104.669.223.616.72.944.955 1.102.458.301.876.38 1.177.446.785.157 1.412.065 1.83 0a5.706 5.706 0 0 0 1.23-.328 7.568 7.568 0 0 0 1.53-.761.08.08 0 0 1 .092.013c.026.026.013.066-.013.092a7.493 7.493 0 0 1-1.557.774c-.235.079-.653.236-1.255.328a4.212 4.212 0 0 1-.994.118Z" fill="#F9C973" fill-rule="nonzero"/><path d="M133.352 68.252c2.302.774 4.76 1.797 7.035 3.568a18.191 18.191 0 0 1 2.093 1.915c.078.263.196.722.287 1.286 1.112 6.35-2.746 12.214-3.282 13.001-1.046 1.548-1.961 2.44-2.864 4.579-.824 1.955-.889 3.161-.784 4.054.144 1.298.667 2.19 1.046 2.873 1.177 2.112 5.636 13.21 5.61 22.512-.602.59-1.334 1.181-2.223 1.706-4.224 2.48-8.853 1.47-10.436 1.05.34-1.076.733-2.546 1.046-4.317.131-.748.916-5.484.131-10.6-.863-5.668-2.994-7.504-5.087-12.7-3.4-8.475-4.433-17.015-.392-24.218 1.334-2.046 2.942-3.319 4.04-4.054 1.178-.393 2.067-1.22 3.78-.655Z" fill="#F95070"/><path d="M122.877 84.73c.301 2.505.497 5.601 2.524 10.613 1.112 3.083 4.394 9.695 4.695 10.416 1.203 3.057 1.765 6.284 1.74 9.092-.262 4.146-1.1 7.281-2.002 9.944.471-2.19.876-5.195.654-8.724a31.785 31.785 0 0 0-2.615-10.731c-4.564-10.732-4.943-15.691-4.996-20.61Z" fill="#BF2652"/><path d="M135.654 81.83c2.353-2.44 6.342-8.593 6.813-8.082.078.263.196.722.287 1.286 1.112 6.35-2.746 12.214-3.282 13.001-1.046 1.548-1.961 2.44-2.864 4.579-.824 1.955-.889 3.162-.784 4.054.143 1.299.667 2.19 1.046 2.873 1.177 2.112 5.636 13.21 5.61 22.512-.602.59-1.334 1.181-2.223 1.706-.759.446-1.543.787-2.315 1.023.314-12.502-1.072-18.393-3.165-23.588-4.158-8.816-.941-16.32.877-19.364ZM124.957 74.01c.327-.248.797-.576 1.386-.917 1.098-.617 1.883-1.076 2.981-1.194 1.713-.197 3.139.511 3.505.695.458.236 1.726.958 2.942 1.443.196.079.393-.118.327-.315a25.106 25.106 0 0 1-.588-1.758 34.865 34.865 0 0 1-.68-2.663 9.274 9.274 0 0 0-2.76-.223c-2.89.223-5.073 1.824-5.766 2.768-.053.079-.484.67-.981 1.509-.157.275-.275.512-.366.656Z" fill="#EA2856"/><path d="M46.554 20.151a.77.77 0 0 1 .249 0c.039.013.261.053.392.223.235.302.105.97-.392 1.26-.118-.053-.759-.604-.249-1.483Z" fill-opacity=".3" fill="#FFF" fill-rule="nonzero" style="mix-blend-mode:lighten" transform="translate(69 42)"/><g><path d="M118.719 71.046c.026 1.023-.066 1.863-.366 3.267-.916 4.172-2.995 6.218-4.839 8.632 0 0-1.83 2.27-5.021 7.885-1.19 2.23-2.851 5.825-3.243 10.416-.34 3.923.326 8.567 1.87 13.802-.471 2.217-1.204 4.933-1.504 6.074a89.824 89.824 0 0 1-1.504-7.32c-.471-2.9-1.02-6.337-1.033-10.745-.026-8.62 2.014-15.061 2.445-16.373.929-2.834 1.203-2.742 3.217-8.12a174.177 174.177 0 0 0 3.53-10.391c.707-.276 5.127-1.68 7.546-2.244-.444.761-1.294 3.411-1.098 5.117Z" fill="#F95070"/><path d="M118.523 73.539c-.053-.315-.183-.866-.615-1.339-.824-.879-2.105-.774-2.72-.721a4.757 4.757 0 0 0-1.91.59c-.156.092-.326-.092-.235-.249.301-.472.589-.853.811-1.128.366-.433.628-.67 1.452-1.483.614-.616 1.124-1.115 1.451-1.456.301.367.628.813.929 1.338.549.971.85 1.89 1.02 2.585l-.183 1.863ZM104.112 113.801c-.471-2.899-1.02-6.336-1.033-10.744-.026-8.62 2.014-15.061 2.445-16.373.615-1.89.942-2.48 1.687-4.25.38-.88-4.695 14.142-3.1 31.367Z" fill="#EA2856"/></g><g transform="translate(114.841 42)" fill-rule="nonzero"><path d="M4.623 20.899c.144.433.3.997.405 1.666.027.131.131.918.105 1.876-.052 1.364-.288 2.624-.55 3.49a1.813 1.813 0 0 0 .289 1.627c.405.524 1.15 1.062 2.55 1.167 3.02.21 7.179-3.267 7.44-3.503-.523-.826-1.216-5.588-.091-9.117-3.27 1.062-6.879 1.718-10.148 2.794Z" fill="#F38484"/><path d="M4.623 20.899c.144.433.3.997.405 1.666.014.092.079.538.105 1.141 6.892.184 8.892-3.673 8.919-3.87.091-.8.235-1.522.392-2.138-3.27 1.062-6.552 2.125-9.82 3.2Z" fill-opacity=".3" fill="#828282" style="mix-blend-mode:normal"/><path d="M19.819 12.083a3.968 3.968 0 0 0-.693-1.365c.209-.472.588-1.508.3-2.689-.196-.813-.654-1.43-1.15-1.902h.013c-2.132-2.572-6.447-3.359-7.18-3.818C9.932 1.758 9.658 1.102 9.736.052a2.27 2.27 0 0 0-.758.788c-.144.275-.21.538-.236.708a1.71 1.71 0 0 1-.497-.826A1.728 1.728 0 0 1 8.22 0a2.871 2.871 0 0 0-.876 1.286c-.47-.027-1.098-.564-1.23-1.181-2.47 1.876-2.052 5.51-1.058 6.494 0 0 2.942 4.342 4.38 6.94a92.29 92.29 0 0 0 2.55 4.33c.014.38.157 2.44 1.831 3.765.72.577 1.465.813 1.949.918.026-.59.13-1.483.549-2.466.615-1.483 1.255-1.575 2.262-3.175.589-.958 1.779-2.873 1.243-4.828Z" fill="#353437"/><path d="M5.93 6.087a.435.435 0 0 0-.51.079c-2.798 2.69-2.222 4.342-2.654 4.815-.536.695-2.524 1.928-2.733 2.453-.261.695 1.112 1.18 1.203 1.456.118.276 0 .499-.288.643-.353.158-.496.617-.052.984 0 0 .798.695.968.905-.327.04-.654-.026-.994.184-.314.21-.21.76.092.84.222.223.34.997.183 1.207-.197.275-.314.354-.419.485-.248.315-.562 1.43.98 1.85 1.23.42 4.46.34 7.376-.46 2.603-.891 3.74-3.673 3.989-4.132.601.38 1.177-.092 1.334-.354.392-.617.876-1.85 1.111-2.755.157-.643-.222-1.404-.797-1.706-.576-.301-1.766-.288-2.446 1.063-1.347-.184-1.961-1.063-2.027-2.086-.17-3.372-3.282-4.946-4.315-5.47Z" fill="#F7B2B2"/><path d="M14.065 16.53c-.013 0-.026 0-.026-.013-.027-.013-.04-.052-.027-.092 0-.013.589-1.167.811-1.915.196-.551-.04-1.063-.353-1.286-.261-.184-.55-.157-.81.066a.063.063 0 0 1-.092 0 .064.064 0 0 1 0-.092c.3-.262.654-.289.967-.079.354.25.628.827.406 1.43-.222.761-.81 1.929-.824 1.942 0 .026-.026.04-.052.04ZM13.175 15.31c-.052 0-.091 0-.13-.013-.04-.013-.053-.04-.053-.079.013-.04.04-.052.079-.052.144.026.34 0 .431-.131.092-.132.066-.341-.091-.604-.262-.42-.157-.735-.079-.892.013-.026.053-.04.092-.026.026.013.04.052.026.092-.065.13-.157.393.079.76.235.394.183.63.091.748-.105.145-.288.197-.445.197Z" fill="#F38484"/><path d="M5.473 12.227a.119.119 0 0 1-.091-.04c-.027-.039-.066-.078-.105-.117-.235-.276-.64-.735-.994-.748a.764.764 0 0 0-.405.092c-.066.04-.144.013-.17-.053-.04-.065-.013-.144.052-.17.183-.092.366-.132.55-.118.457.026.888.511 1.176.84.04.039.079.078.105.117.052.053.039.132-.013.184-.04.013-.079.013-.105.013Z" fill="#353437"/><circle fill="#353437" transform="rotate(-84.508 4.358 11.772)" cx="4.358" cy="11.772" r="1"/><path d="m4.27 10.351-.288.079c-.078.026-.17-.026-.183-.105-.039-.17.497-.538.497-.538a.624.624 0 0 1 .589.052c.183.118.392.263.549.38a5.83 5.83 0 0 1 1.177 1.326c.026.052-.026.092-.079.065a8 8 0 0 0-1.674-1.167c-.17-.118-.379-.131-.588-.092Z" fill="#353437"/><path d="M1.602 15.048c-.052 0-.091 0-.144-.013-.065-.014-.117-.08-.104-.145.013-.065.078-.118.144-.105.183.027.353-.013.457-.13.105-.106.131-.276.092-.473-.013-.066.026-.144.105-.158.065-.013.143.027.156.105a.784.784 0 0 1-.156.709.817.817 0 0 1-.55.21Z" fill-opacity=".3" fill="#828282" style="mix-blend-mode:normal"/><path d="M.988 18.459c.353.223 1.111.288 1.778.183-.523.578-1.216.709-1.556.67.013-.224-.052-.512-.222-.853ZM13.084 17.396c-.17-.105-.3-.197-.484-.485-.13-.184-.366-.184-.523.105-1.7 4.132-5.61 4.696-7.78 5.208a21.029 21.029 0 0 0 4.785-.709c2.694-.852 4.002-4.119 4.002-4.119Z" fill="#F38484"/><path d="M2.335 17.632a.943.943 0 0 1-.667-.262c-.066-.066-.183-.17-.301-.289-.235-.223-.536-.511-.654-.603a.14.14 0 0 1-.013-.184.14.14 0 0 1 .183-.013c.105.105.405.38.654.617.118.118.235.223.3.275.21.197.445.236.838.144.065-.013.143.027.157.105.013.066-.027.145-.105.158-.13.026-.262.052-.392.052Z" fill-opacity=".3" fill="#828282" style="mix-blend-mode:normal"/></g><g><path d="M128.906 65.182a11.58 11.58 0 0 1 1.177 0c1.007.052 1.438.236 1.674.354.261.131.457.236.549.446.118.275 0 .603-.314 1.063-.654.944-1.674 1.692-2.445 2.177a4.778 4.778 0 0 1-.772-1.863 4.814 4.814 0 0 1 .13-2.177Z" fill="#BF2652"/><path d="M129.024 65.234c.601-.052 1.085 0 1.425.053.85.144 1.19.406 1.347.564.235.223.261.367.261.433.013.17-.065.354-.483.747a6.176 6.176 0 0 1-.824.656s-.916.683-1.386.997c-.563.38-1.439 1.142-2.825 2.795-.21.236-.432.525-.654.879a6.958 6.958 0 0 0-.392.748 8.239 8.239 0 0 1 2.432-1.837c.628-.315 1.452-.708 2.615-.748.563-.013 1.609-.04 2.524.564.301.197.484.394.994.696.327.196.641.328.89.433.156.065.326-.08.287-.237-.04-.21-.091-.472-.144-.76-.287-1.614-.222-1.837-.392-2.572-.196-.826-.432-1.823-1.255-2.624-.654-.616-1.334-1.01-1.91-1.18-.915-.263-1.883-.25-2.524-.184 0 .302.014.407.014.577Z" fill="#FC6C85"/></g><g><path d="M120.04 66.166c-1.426.091-2.315 2.702-1.321 4.736-.013-.984.431-2.73 1.347-2.9.353-.931-.013-1.495-.026-1.836Z" fill="#BF2652"/><path d="M118.719 71.767c-1.726-2.164-2.956-1.797-3.714-1.521-.144.052-.248-.118-.144-.236.262-.276.576-.63.89-1.063 2.262-3.004 4.563-3.45 4.563-3.45s.118.393-.091.655c-1.596.88-1.779 2.27-1.583 3.91.144.905.053 1.692.079 1.705Z" fill="#FC6C85"/></g><path d="M134.032 125.451c-.34 0-.615-.013-.824-.026a14.526 14.526 0 0 1-3.36-.564l-.066-.013.026-.066c.118-.354 2.838-8.632 1.517-14.759-.615-2.834-1.765-5.366-1.778-5.392-.079-.184-.236-.485-.445-.905-1.23-2.44-4.498-8.947-5.689-14.641-.326-1.771-.81-4.448-.483-7.872.104-1.102.313-3.161 1.268-5.602.902-2.295 2.027-3.83 2.472-4.381.797-1.168 2.641-2.559 3.857-3.464.576-.433 1.033-.774 1.203-.958.053-.052.275-.393.17-.708-.104-.328-.496-.551-1.176-.682-.615-.092-1.034-.118-1.648-.092-.04 0-.066-.026-.066-.066 0-.039.027-.065.066-.065.628-.026 1.046 0 1.674.092.732.13 1.164.393 1.281.774.131.38-.13.774-.209.84-.183.196-.64.537-1.23.97-1.215.905-3.046 2.283-3.83 3.437-.445.551-1.557 2.073-2.446 4.356-.955 2.427-1.138 4.395-1.256 5.562-.327 3.398.157 6.075.484 7.833 1.19 5.667 4.446 12.161 5.676 14.601l.457.919c.013.026 1.177 2.571 1.792 5.418 1.281 5.943-1.216 13.906-1.504 14.759a13.75 13.75 0 0 0 3.27.55c.784.04 2.628.119 4.85-.655a12.193 12.193 0 0 0 4.369-2.65.063.063 0 0 1 .091 0 .064.064 0 0 1 0 .092c-1.294 1.207-2.772 2.112-4.42 2.676a12.491 12.491 0 0 1-4.093.682Z" fill="#EA2856"/><g><path d="M131.351 204.285c.275.511.563 1.967-.183 2.833-4.12 2.322-14.646 4.107-17.68 3.752-1.778-.17-3.047-.8-3.36-1.43-.472-.944-.027-2.02.117-2.322 1.49-.196 2.995-.406 4.525-.643 5.701-.865 16.555-2.492 16.581-2.19Z" fill="#BF2652"/><path d="M121.949 195.783c.183-.04.444-.078.758-.052a2.37 2.37 0 0 1 1.099.354c.706.446.928 1.194.98 1.39.184-.065.458-.117.76-.052.51.105.784.486 1.163.932.353.42.968 1.128 1.451 1.456.471.315 1.256.55 2.668.17.157.342.327.84.406 1.457.104.879.209 2.48.091 2.912-.64 1.653-8.696 3.792-13.116 4.684-1.23.301-3.008.393-3.4.38-1.151-.026-2.236-.144-3.453-.643-.496-.21-.889-.42-1.163-.577-.066-.315-.118-.826.117-1.338.236-.538.667-.813 1.216-1.168 1.452-.931 2.394-1.495 2.498-1.548 1.844-1.023 3.44-2.886 5.859-5.72.484-.616 1.216-1.508 2.066-2.637Z" fill="#FC6C85"/><path d="M124.787 197.463c.183-.066.457-.119.758-.053.366.079.602.289.85.577-3.635 3.333-7.663 7.373-9.834 8.069-1.124.38-3.596 0-3.897-1.102.366-.223.798-.486 1.308-.788 2.458-.734 4.38-1.128 10.815-6.703Z" fill="#BF2652"/><path d="M124.8 197.463c-.589.511-1.439 1.246-2.511 2.27-1.582 1.521-2.08 2.138-3.19 3.082-.55.46-1.296 1.063-2.263 1.693-1.57.905-3.27-.053-2.89-.355.287-.183.588-.393.915-.63.955-.708 1.648-1.456 3.02-2.912.825-.879 1.622-1.732 2.616-2.965.602-.748 1.086-1.417 1.452-1.915.222-.053.837-.17 1.504.118 1.02.42 1.307 1.47 1.347 1.614ZM111.513 205.662c.183.157.458.367.811.525.013.013.04.013.052.026.419.184.667.63.55 1.076a.777.777 0 0 0-.026.184c-.027.38.156.669.287.879.523.8 1.426 1.088 1.975 1.075-.458.158-1.766.564-3.126.21a5.215 5.215 0 0 1-2.092-1.102 2.755 2.755 0 0 1 .353-1.745 2.778 2.778 0 0 1 1.216-1.128ZM124.198 199.81a12.14 12.14 0 0 1 2.563 2.362 12.266 12.266 0 0 1 1.766 2.926c.104.302.222.59.327.892-.38.17-.785.328-1.19.485l-.55.197a11.362 11.362 0 0 0-1.059-2.178 11.788 11.788 0 0 0-3.308-3.45c.483-.42.967-.826 1.451-1.233ZM121.282 202.317c.431.328.89.734 1.347 1.22a11.633 11.633 0 0 1 2.367 3.778c-.68.184-1.347.38-2.027.564a9.82 9.82 0 0 0-1.112-2.178 9.945 9.945 0 0 0-1.974-2.164c.47-.394.941-.814 1.399-1.22Z" fill="#BF2652"/><path d="M130.92 200.204c.13.315.248.735.3 1.207.105.88.21 2.48.092 2.913-.262.669-1.74 1.417-3.7 2.138.222-3.62 3.268-6.336 3.308-6.258Z" fill="#BF2652"/></g><g transform="translate(112.538 188.34)" fill="#FFF"><circle transform="rotate(-40.539 11.725 10.535)" cx="11.725" cy="10.535" r="1"/><circle transform="rotate(-40.539 9.742 12.393)" cx="9.742" cy="12.393" r="1"/><circle transform="rotate(-40.539 7.656 14.363)" cx="7.656" cy="14.363" r="1"/><circle transform="rotate(-40.539 5.214 16.314)" cx="5.214" cy="16.314" r="1"/><path d="M11.673 10.645c-.013 0-.026 0-.039-.014a8.938 8.938 0 0 0-2.328-1.206 8.786 8.786 0 0 0-1.15-.315c-.04-.013-.053-.04-.053-.08.013-.038.04-.052.079-.052.392.08.784.184 1.164.328a9.26 9.26 0 0 1 2.367 1.234c.026.026.039.065.013.091-.013 0-.04.014-.053.014ZM9.725 12.481c-.013 0-.026 0-.04-.013a6.734 6.734 0 0 0-1.7-1.062c-.47-.21-.98-.368-1.49-.46-.04 0-.066-.039-.053-.078.014-.04.04-.066.079-.053a6.978 6.978 0 0 1 3.243 1.561.081.081 0 0 1 .013.092c-.013 0-.026.013-.052.013ZM7.672 14.45c-.013 0-.026 0-.04-.014a7.912 7.912 0 0 0-2.811-1.64c-.04-.013-.052-.052-.04-.079.014-.039.053-.052.08-.039.457.158.915.354 1.346.59.55.302 1.06.67 1.517 1.09a.064.064 0 0 1 0 .091h-.052ZM5.24 16.312c-.014 0-.027 0-.04-.013a11.98 11.98 0 0 0-1.294-.892c-.367-.223-.746-.42-1.125-.604-.026-.013-.052-.052-.026-.091.013-.04.052-.053.091-.027.393.184.772.394 1.138.617.458.275.89.577 1.308.905.026.026.039.066.013.092-.04.013-.053.013-.066.013Z"/><path d="M9.228 9.372a.099.099 0 0 1-.052-.026c-.353-.433-1.347-1.43-2.851-1.548a3.912 3.912 0 0 0-1.543.197c-1.125.327-2.276-.066-2.746-.932-.458-.853-.027-1.784.026-1.89.235-.485.784-1.101 2.014-1.337 1.791-.341 3.53.879 4.38 2.151.85 1.26.877 2.624.824 3.333 0 .026-.026.052-.039.052 0-.013 0 0-.013 0Zm-3.19-1.719c.104 0 .195 0 .3.014 1.425.104 2.406.983 2.838 1.469.039-.722-.053-1.955-.811-3.083-1.19-1.771-3.034-2.322-4.25-2.1-1.177.224-1.7.814-1.923 1.273-.052.092-.457.984-.026 1.771.432.814 1.53 1.181 2.59.866.418-.13.85-.21 1.281-.21Z"/><path d="M9.228 9.306h-.013c-.026 0-.052-.026-.052-.052-.118-.97-.445-1.666-.968-2.086a1.908 1.908 0 0 0-.641-.341c-.262-.105-.562-.223-.955-.525C6.207 6 5.723 5.62 5.501 4.99c-.275-.8-.052-1.994.771-2.61 1.047-.761 2.511-.224 3.217.406 1.36 1.207.981 3.437.628 4.658a6.433 6.433 0 0 1-.85 1.823c.013.026-.013.04-.04.04Zm-1.74-7.163c-.392 0-.784.105-1.124.355-.785.577-.98 1.705-.732 2.453.209.603.667.958 1.046 1.246.38.289.667.407.915.512.223.092.445.17.68.367.523.407.85 1.076.981 1.994a5.942 5.942 0 0 0 .732-1.64c.798-2.78-.026-4.027-.588-4.526-.419-.406-1.164-.76-1.91-.76Z"/><path d="M9.228 9.306h-.013c-.04-.013-.052-.039-.052-.078.313-1.181.353-2.322.091-3.424C8.274 1.644 3.526.175 3.33.123 3.29.11 3.278.071 3.29.044c.014-.04.053-.052.08-.04.209.067 5.021 1.549 6.015 5.773.261 1.129.235 2.296-.092 3.49 0 .026-.026.04-.065.04Z"/><path d="M9.228 9.306c-.026 0-.04-.013-.052-.026-.432-.643-1.387-1.784-2.956-2.243C4.102 6.42 1.71 7.299.113 9.254a.08.08 0 0 1-.091.013.081.081 0 0 1-.013-.092C1.63 7.181 4.089 6.29 6.246 6.92c1.609.459 2.59 1.64 3.021 2.296.026.026.013.065-.013.091h-.026Z"/></g><g><path d="M145.658 108.173c-.667.604-1.334 1.207-2.027 1.798a119.624 119.624 0 0 1-12.934 9.773 9.836 9.836 0 0 1-.876 1.981c-.3.525-.627.971-.928 1.339-.994.21-1.818.21-2.38.17-.667-.04-2.877-.197-4.865-1.797a8.076 8.076 0 0 1-1.216-1.22c.157-.236.314-.46.458-.696a6.633 6.633 0 0 1-1.504.578c-1.06.275-1.583.157-1.74.118-.274-.066-.771-.131-.876-.473-.065-.223-.13-.406.027-.577.222-.25.745-.354.784-.354.458-.17 1.125-.433 1.91-.813 1.137-.551 1.62-.919 2.196-1.22.785-.407 2.014-.8 3.832-.696a36.819 36.819 0 0 0 3.02-1.745c4.395-2.833 7.494-6.231 9.625-9.13.21-.237.537-.539.981-.814.955-.577 1.857-.63 2.027-.643 1.7-.079 2.877.997 3.19 1.286.38.34 1.086.984 1.282 2.033.105.46.066.84.014 1.102Z" fill="#F7B2B2" fill-rule="nonzero"/><path d="M138.465 74.208c-5.218 7.215-2.811 14.706-2.51 16.044.549 2.06 2.38 9.38 2.72 10.325.248.709.392 1.378.3 2.178 5.78-1.089 7.624 3.28 6.617 5.55 0 0 1.216-.683 1.975-2.086.941-1.745.3-3.202.13-7.203-.052-1.22 0-2.44 0-3.66-.013-8.082-1.987-20.624-6.446-22.657-.85-.289-2.08.748-2.786 1.509Z" fill="#FC6C85"/><path d="M118.196 120.348c-.21 0-.393-.026-.55-.066h-.026c-.274-.065-.797-.21-.915-.577-.052-.223-.04-.394.052-.538.144-.236.445-.302.667-.367.066-.013.118-.026.17-.04.641-.236 1.282-.511 1.91-.813.68-.328 1.124-.59 1.503-.826.249-.145.458-.276.693-.394 1.086-.551 2.367-.787 3.845-.708a37.763 37.763 0 0 0 2.995-1.732c3.674-2.375 6.904-5.445 9.611-9.118.026-.026.066-.04.092-.013.026.026.04.065.013.092-2.707 3.686-5.95 6.756-9.638 9.144-.968.63-1.988 1.22-3.02 1.745-.014 0-.027.013-.04.013-1.451-.079-2.733.144-3.792.695-.223.118-.445.25-.68.394-.366.223-.824.498-1.517.826-.628.302-1.269.577-1.922.814-.053.013-.118.026-.184.052-.209.052-.47.118-.588.302-.065.105-.078.249-.026.433.091.288.562.42.824.485h.026c.418.105 1.007.066 1.713-.118a6.878 6.878 0 0 0 1.49-.577c.027-.013.066-.013.08.013.025.026.025.052 0 .079l-.459.695c-.026.026-.065.04-.091.013-.026-.026-.04-.066-.013-.092l.327-.498a6.992 6.992 0 0 1-1.295.472c-.497.144-.902.21-1.255.21Z" fill="#F38484" fill-rule="nonzero"/><path d="M135.222 82.853c-.327 3.713.562 6.612.745 7.386.55 2.06 2.38 9.38 2.72 10.325.249.709.393 1.378.301 2.178a9.923 9.923 0 0 1 1.988-.17c1.125-8.187-4.616-14.025-5.754-19.719ZM147.344 104.277c.393.17.38.302.667.708.236-1.351-.17-2.912-.3-5.982-.053-1.22 0-2.44 0-3.66 0-5.563-.942-13.224-2.982-18.131 3.78 15.494 1.452 21.187 2.615 27.065Z" fill="#F95070"/><path d="M128.906 123.13c-.013 0-.026 0-.04-.014a.081.081 0 0 1-.012-.092c.34-.42.653-.866.915-1.325a9.766 9.766 0 0 0 .863-1.968l.013-.026.013-.013a120.95 120.95 0 0 0 12.92-9.76c.183-.158.34-.303.497-.434.445-.38.837-.721 1.321-1.167a.063.063 0 0 1 .092 0 .064.064 0 0 1 0 .092c-.497.446-.877.774-1.321 1.167-.157.131-.327.276-.497.433a119.228 119.228 0 0 1-12.92 9.76c-.223.683-.51 1.352-.863 1.969-.275.472-.589.931-.929 1.35-.013.027-.04.027-.052.027Z" fill="#F38484" fill-rule="nonzero"/><path d="M138.099 105.208c.235-.183.588-.42 1.046-.616a4.374 4.374 0 0 1 2.223-.354c1.661.183 2.642 1.311 2.786 1.482 1.033 1.22 1.007 2.61.994 2.926.196.039.614.078 1.046-.132.601-.288.98-.944.994-1.705.143-.053.47-.21.693-.564.392-.604.157-1.273.13-1.352-.3-1.128-4.982-4.473-8.997-2.204-.222.197-.562.761-.562 1.457-.222.42-.314.8-.353 1.062Z" fill="#BF2652"/><path d="M147.358 103.004c-.014 0-.027 0-.04-.013a8.318 8.318 0 0 0-2.929-1.509 7.946 7.946 0 0 0-2.59-.301 7.57 7.57 0 0 0-1.804.34c-.04.014-.065-.012-.078-.039-.013-.026.013-.065.039-.078a7.396 7.396 0 0 1 1.844-.354c.379-.027 1.399-.04 2.628.301a8.613 8.613 0 0 1 2.982 1.535c.026.026.04.066.013.092-.026.026-.052.026-.065.026ZM146.743 106.323c-.026 0-.04-.013-.052-.026a6.325 6.325 0 0 0-2.106-2.164c-1.517-.919-2.968-.88-3.44-.866a6.5 6.5 0 0 0-1.804.301c-.039.014-.065-.013-.078-.039-.013-.04.013-.066.04-.079a7.338 7.338 0 0 1 1.843-.315c.484-.013 1.975-.052 3.518.88 1.111.669 1.778 1.574 2.157 2.204a.07.07 0 0 1-.026.091c-.026.013-.039.013-.052.013Z" fill="#EA2856"/><path d="M117.058 119.482c-.04 0-.065-.026-.065-.066 0-.039.026-.065.065-.065.144 0 .275-.026.419-.053.156-.039.313-.078.47-.144a.306.306 0 0 0 .092-.092c.091-.144-.013-.328-.013-.34-.013-.027 0-.066.026-.093.026-.013.065 0 .091.027.014.026.131.262.014.472a.503.503 0 0 1-.144.144c-.17.079-.327.131-.497.158a2.881 2.881 0 0 1-.458.052Z" fill="#F38484" fill-rule="nonzero"/></g><path d="M58.167 81.287c-1.19 0-2.603-.21-4.067-.919-1.334-.643-2.145-1.495-2.733-2.112a.064.064 0 0 1 0-.092.063.063 0 0 1 .091 0c.589.617 1.386 1.443 2.694 2.086 2.955 1.43 5.728.787 6.774.551l.04-.013c.038-.013.064.013.078.053.013.039-.014.065-.053.078l-.039.013c-.536.118-1.53.355-2.785.355Z" fill-opacity=".3" fill="#828282" fill-rule="nonzero" style="mix-blend-mode:normal" transform="translate(69 42)"/><path d="M107.041 115.021c-.026 0-.052-.013-.065-.052a50.69 50.69 0 0 1-1.099-4.631c-.287-1.509-.614-3.201-.732-5.445-.052-1.102-.144-2.768.144-4.932.196-1.483.601-2.769.824-3.464.039-.131.078-.236.104-.328l.013-.026c.824-2.48 2.367-7.11 8.618-15.008 1.007-1.339 3.112-4.107 3.583-7.53.314-1.313.183-2.795.105-3.674a5.348 5.348 0 0 1-.04-.551 4.501 4.501 0 0 1 .027-.827c.039-.301.157-1.089.771-1.784.17-.197.366-.367.589-.512a.08.08 0 0 1 .091.014.07.07 0 0 1-.026.091c-.21.132-.405.302-.562.486-.589.656-.693 1.417-.733 1.705-.039.302-.039.551-.026.8 0 .132.026.315.04.552.078.892.222 2.4-.105 3.712-.47 3.45-2.59 6.245-3.61 7.583-6.237 7.885-7.767 12.49-8.59 14.97l-.014.025c-.026.092-.065.197-.105.328-.235.735-.627 1.968-.823 3.438-.288 2.138-.197 3.804-.144 4.906.117 2.23.431 3.936.719 5.432.3 1.548.667 3.109 1.098 4.618.013.039-.013.065-.039.078 0 .026 0 .026-.013.026Z" fill="#EA2856"/><g><path d="M89.479 75.716a47.066 47.066 0 0 1-2.956-2.873c-3.02-3.227-4.302-5.457-5.57-7.766-.223-.407-.406-1.706-1.086-3.359-.118-.275-.235-.538-.34-.774a2.153 2.153 0 0 0-1.386-1.18c-.17-.04-.327-.092-.497-.132-.89-.918-1.818-1.85-2.785-2.794a156.192 156.192 0 0 0-4.434-4.146c-.366-.25-.823-.236-1.085 0-.34.302-.353.984.13 1.39a69.077 69.077 0 0 1 2.433 2.625c.497.55.994 1.089 1.452 1.64a.653.653 0 0 0-.471.721c-.052-.026-.615-.21-1.072.04-.34.183-.524.511-.563.826-.065.46.183.918.615 1.18-.105.04-.392.171-.562.486-.21.38-.131.88.17 1.26-.144.157-.34.446-.393.826-.091.682.327 1.404 1.046 1.837.55.446 1.217.931 2.001 1.39.916.538 1.779.932 2.524 1.22a92.1 92.1 0 0 0 2.393 5.104c1.543 3.057 2.59 5.103 4.433 7.465A28.736 28.736 0 0 0 86 83.535c1.936.761 4.015.368 5.087-.879 1.478-1.718 1.099-5.142-1.608-6.94Z" fill="#F7B2B2" fill-rule="nonzero"/><path d="M112.35 68.12a85.266 85.266 0 0 0-5.479 2.493c-4.682 2.322-6.225 3.634-9.52 4.71-1.425.472-3.622 1.036-6.525 1.18-.393-.301-.785-.616-1.177-.918-.667.8-1.413 1.85-2.093 3.136a18.477 18.477 0 0 0-1.7 4.71c.536.944 2.786 3.004 6.656 3.004 2.629-.25 3.374-.499 6.003-.787 2.524-.276 3.491-.21 4.171-.132 1.217.145 2.328.433 2.995.67 1.334-2.073 2.655-4.697 3.91-7.859 1.556-3.87 2.34-7.4 2.76-10.207Z" fill="#FC6C85"/><path d="M86.47 81.253c-.274.813-.47 1.548-.6 2.19.536.945 2.785 3.005 6.656 3.005 2.628-.25 3.373-.499 6.002-.787 2.524-.276 3.491-.21 4.171-.131 1.217.144 2.328.432 2.995.669a36.927 36.927 0 0 0 1.949-3.438c-3.204-3.437-19.158 4.592-21.172-1.508Z" fill="#F95070"/><path d="M12.005 22.539c-1.74-2.926-2.406-3.805-3.557-5.051.601 1.299 1.137 2.4 1.582 3.28 1.386 2.742 2.367 4.67 3.884 6.743-.275-1.22-.64-2.663-1.91-4.972Z" fill-opacity=".3" fill="#FFF" fill-rule="nonzero" style="mix-blend-mode:lighten" transform="translate(69 52.456)"/><path d="M85.79 83.391c-.012 0-.038 0-.051-.013a29.506 29.506 0 0 1-2.315-2.637c-.026-.026-.013-.066.013-.092.026-.026.065-.013.092.013a29.34 29.34 0 0 0 2.314 2.624.064.064 0 0 1 0 .092c-.013 0-.039.013-.052.013ZM89.452 75.808c-.013 0-.026 0-.039-.013a45.458 45.458 0 0 1-2.942-2.9c-2.942-3.135-4.21-5.286-5.57-7.779-.092-.17-.184-.485-.302-.931-.17-.617-.392-1.47-.797-2.44a13.815 13.815 0 0 0-.34-.775 2.06 2.06 0 0 0-1.347-1.141l-.51-.144-.013-.013a140.074 140.074 0 0 0-2.786-2.795 147.984 147.984 0 0 0-4.433-4.145c-.327-.224-.745-.224-.994 0-.144.13-.222.34-.222.564 0 .275.13.55.353.734a77.229 77.229 0 0 1 2.445 2.624c.17.184.34.38.51.564.327.368.654.709.955 1.076l.065.079-.104.026a.575.575 0 0 0-.419.656l.013.118-.104-.04s-.563-.21-1.02.04a1.071 1.071 0 0 0-.536.774c-.053.433.17.866.575 1.115l.118.066-.131.052c-.13.053-.392.184-.536.446-.196.355-.131.827.17 1.194l.039.04-.04.039c-.143.17-.326.433-.378.8-.092.656.313 1.351 1.006 1.771.641.512 1.308.984 2.001 1.39a17.75 17.75 0 0 0 2.511 1.221l.026.013.013.026c.196.46.406.932.615 1.391.013.04 0 .066-.026.092-.04.013-.066 0-.092-.026-.209-.446-.405-.906-.601-1.365a16.43 16.43 0 0 1-2.511-1.22 17.84 17.84 0 0 1-2.014-1.404c-.745-.433-1.164-1.18-1.072-1.889.039-.288.17-.577.366-.826-.3-.394-.353-.906-.144-1.3.13-.235.327-.38.484-.458-.392-.276-.602-.722-.536-1.181.052-.367.274-.695.601-.879.393-.21.837-.131 1.033-.066 0-.367.249-.59.432-.669-.288-.328-.576-.656-.89-.997-.17-.183-.34-.367-.51-.564a76.434 76.434 0 0 0-2.432-2.61 1.086 1.086 0 0 1-.392-.827c0-.263.092-.512.275-.67.287-.262.784-.262 1.163 0a148.481 148.481 0 0 1 4.447 4.146c.928.906 1.87 1.85 2.772 2.782l.484.13c.64.171 1.15.618 1.425 1.221.118.262.236.525.34.774.406.984.628 1.837.798 2.453.118.433.196.735.288.892 1.36 2.48 2.628 4.632 5.557 7.754.654.695 1.635 1.745 2.93 2.9a.064.064 0 0 1 0 .091c.013 0 0 .013-.027.013Z" fill="#F38484" fill-rule="nonzero"/><path d="M90.786 76.464a25.59 25.59 0 0 0-1.307 2.742 24.346 24.346 0 0 0-1.57 6.114c-.209.039-.993.13-1.739-.355-1.06-.682-1.124-1.928-1.124-2.046a1.715 1.715 0 0 1-.654-.394c-.484-.459-.55-1.05-.563-1.22a27.035 27.035 0 0 1 1.87-2.965 25.987 25.987 0 0 1 2.956-3.398c.157-.013.732-.065 1.307.302.641.42.785 1.076.824 1.22Z" fill="#BF2652"/><path d="M85.477 82.59h-.026c-.04-.012-.052-.052-.04-.078a17.103 17.103 0 0 1 1.805-3.673 17.32 17.32 0 0 1 1.753-2.283.063.063 0 0 1 .091 0 .064.064 0 0 1 0 .092c-.64.708-1.216 1.47-1.74 2.256a17.806 17.806 0 0 0-1.79 3.647c0 .027-.027.04-.053.04ZM89.19 84.677s-.012 0 0 0c-.038 0-.064-.04-.064-.066a17.72 17.72 0 0 1 1.281-5.431c.235-.577.51-1.142.81-1.693.014-.026.053-.039.092-.026.027.013.04.053.027.092-.301.538-.576 1.115-.811 1.68a17.097 17.097 0 0 0-1.269 5.391c-.013.027-.039.053-.065.053Z" fill="#EA2856"/><g fill="#F38484" fill-rule="nonzero"><path d="M77.735 59.724c-1.503-.092-2.903-.735-3.164-.918a.726.726 0 0 1-.105-.079c-.222-.157-.47-.328-.81-.354-.105 0-.223 0-.328.026-.039.013-.065-.013-.078-.052-.013-.04.013-.066.052-.08.118-.025.249-.039.366-.025.38.026.654.21.877.367.039.026.078.052.104.079.249.17 1.648.8 3.1.892.039 0 .065.04.065.065-.013.053-.04.079-.079.079Z"/><path d="M74.362 59.449c-.066 0-.131-.027-.17-.04a3.053 3.053 0 0 1-.602-.288.557.557 0 0 1-.222-.237.528.528 0 0 1-.04-.196c0-.04.027-.066.066-.066.04 0 .065.026.065.066 0 .052.013.105.04.144.039.079.091.131.17.184.196.13.418.223.575.288.04.026.105.04.157.026.065-.013.104-.065.157-.13a.799.799 0 0 0 .117-.237c.014-.04.04-.052.079-.04.04.014.052.04.04.08a.854.854 0 0 1-.145.288c-.065.079-.117.158-.235.184 0-.026-.026-.026-.052-.026ZM75.617 62.505h-.065a8.607 8.607 0 0 0-.667-.21c-.04-.013-.118-.026-.183-.105a.299.299 0 0 1-.066-.236v-.013l.092-.288a.317.317 0 0 1 .47-.223l.667.196c.04.013.053.053.04.079-.013.04-.053.053-.079.04l-.68-.197h-.013c-.013-.014-.078-.04-.157-.014-.065.027-.104.08-.117.158l-.092.302c0 .065.013.105.04.144.038.04.09.052.117.066.157.039.38.118.667.21.026 0 .104 0 .17-.027a.274.274 0 0 0 .157-.197c.013-.039.052-.052.078-.039.04.013.053.053.04.079a.452.452 0 0 1-.236.275c-.065-.013-.13 0-.183 0ZM75.735 64.237h-.026c-.066-.013-.55-.092-.811-.184a.425.425 0 0 1-.21-.144.397.397 0 0 1-.065-.21v-.013l.092-.328c0-.026.026-.131.117-.223.118-.092.249-.092.275-.079l.863.25c.04.013.052.052.04.078-.014.027-.053.053-.08.04l-.862-.25c-.013 0-.092-.013-.17.053a.197.197 0 0 0-.079.144l-.091.328c0 .053.013.092.039.131.04.053.092.08.144.092.248.092.732.17.784.184.027 0 .118 0 .197-.053a.314.314 0 0 0 .143-.236c0-.04.04-.065.079-.052.04 0 .065.04.052.078-.013.053-.039.224-.196.328a.459.459 0 0 1-.235.066ZM74.754 65.103a1.38 1.38 0 0 1-.405-.066c-.131-.039-.21-.092-.249-.157-.04-.079-.026-.158-.013-.236.013-.079.04-.158.065-.236.013-.027.053-.053.092-.027.026.013.052.053.026.092-.026.066-.052.131-.065.197-.013.079-.013.118 0 .157.013.014.026.053.17.092.144.04.287.066.444.053.04 0 .066.026.066.065 0 .04-.026.066-.066.066h-.065Z"/><path d="M72.78 65.667h-.014c-.039-.013-.052-.052-.039-.079.026-.092.04-.17.026-.262a.64.64 0 0 0-.13-.341c-.014-.026-.014-.066 0-.079.012-.013.052-.026.078-.013.444.25.915.394 1.386.394.262 0 1.072.026 1.268-.394a.56.56 0 0 0 .027-.394c0-.026 0-.039.013-.052a.099.099 0 0 1 .052-.026c.55.065.968-.25 1.033-.59.065-.355-.183-.617-.431-.722-.131-.066-.21-.092-.288-.118-.079-.027-.157-.066-.288-.131-.026-.014-.04-.053-.04-.08.014-.025.053-.052.08-.039.26.08.575-.078.732-.328.183-.301.104-.655-.21-.983a.064.064 0 0 1 0-.092.063.063 0 0 1 .092 0c.51.524.327.97.235 1.141a.897.897 0 0 1-.536.394c.079.026.157.065.288.118.38.183.575.524.497.866-.092.433-.562.734-1.086.695a.662.662 0 0 1-.052.393c-.235.499-1.072.486-1.4.473a3.112 3.112 0 0 1-1.255-.315c.027.066.04.131.053.21.013.105 0 .21-.026.315-.013.013-.04.039-.066.039Z"/><path d="M75.5 62.846h-.014a10.327 10.327 0 0 1-2.628-1.023c-.38-.223-.759-.46-1.112-.735-.026-.026-.04-.065-.013-.091.026-.027.065-.04.092-.014a9.9 9.9 0 0 0 1.098.722c.81.46 1.674.8 2.59 1.01.039.013.052.04.052.079 0 .026-.026.052-.066.052ZM75.473 64.526s-.013 0 0 0a11.658 11.658 0 0 1-3.073-1.05c-.327-.17-.654-.354-.968-.55-.026-.014-.039-.066-.013-.093.013-.026.066-.04.092-.013.3.197.627.38.954.551.942.486 1.962.84 3.021 1.037.04.013.053.039.053.078-.014.013-.04.04-.066.04ZM78.285 62.466a3.678 3.678 0 0 1-1.452-.499 4.002 4.002 0 0 1-.693-.55 5.721 5.721 0 0 1-1.765-.59c-.484-.25-.746-.473-.89-.618-.17-.17-.444-.446-.601-.905-.026-.092-.052-.183-.066-.262 0-.04.014-.066.053-.079.039 0 .065.013.078.053.013.078.04.17.066.249.13.42.392.682.562.84.144.144.38.354.85.603a5.987 5.987 0 0 0 1.752.577h.026l.014.013c.209.21.431.394.68.538.418.263.889.42 1.399.486.039 0 .065.039.052.078 0 .04-.026.066-.065.066Z"/></g></g></g><g><g fill="#A2E9FC"><ellipse cx="90.021" cy="178.578" rx="2.358" ry="2.357"/><circle cx="198.985" cy="108.456" r="1.1"/><ellipse cx="190.562" cy="113.158" rx="3.223" ry="3.222"/><ellipse cx="10.467" cy="5.33" rx="2.699" ry="2.698"/><circle cx="1.153" cy="1.153" r="1.153"/><ellipse cx="69.926" cy="162.573" rx="5.174" ry="5.173"/><circle cx="59.093" cy="168.82" r="1.834"/></g><path d="m202.614 185.087 13.348-11.473-1.414-2.842a.63.63 0 0 0-.655-.498l-17.895 1.31c-.445.026-.707.498-.51.904l6.235 12.52c.183.406.59.42.89.079Z" fill="#BF2652"/><path d="m204.055 187.785 11.79-13.53a.616.616 0 0 0-.511-1.02l-17.908 1.27a.614.614 0 0 0-.51.89l6.117 12.259a.617.617 0 0 0 1.022.13Z" fill="#F95070"/><path d="m192.946 63.861-.59-1.192-6.968 3.707.563 1.27a.264.264 0 0 0 .144.118l6.353 2.685c.223.078.42-.04.446-.275l.078-6.182c0-.066-.013-.092-.026-.131Z" fill="#BF2652"/><path d="m192.016 62.577-6.524 3.471c-.196.105-.183.38.027.472l6.38 2.645a.256.256 0 0 0 .353-.235l.144-6.117a.25.25 0 0 0-.38-.236Z" fill="#F95070"/><path d="m68.616 73.003-6.759-4.977-1.179.956c-.131.065-.21.196-.157.354l2.515 8.172c.065.197.314.275.472.144l5.16-4.23c.171-.131.132-.315-.052-.42Z" fill="#BF2652"/><path d="M69.717 72.047 62.17 68a.29.29 0 0 0-.419.34l2.49 8.186a.3.3 0 0 0 .47.144l5.044-4.139a.288.288 0 0 0-.04-.484Z" fill="#F95070"/><g><path d="m192.972 43.705-2.397-.642-3.34 14.263 2.45.76h.012c.105.012.223 0 .354-.066l11.633-5.697c.406-.223.34-.59.105-.812l-8.607-7.715a.43.43 0 0 0-.21-.091Z" fill="#F9C973" fill-rule="nonzero"/><path d="m190.051 43.417-3.105 13.345a.479.479 0 0 0 .682.537l11.488-5.67c.301-.145.354-.55.105-.786l-8.384-7.675c-.262-.236-.707-.105-.786.249Z" fill="#FFF9B0"/></g><g><path d="m23.016 177.058 2.804.59 2.973-16.725-2.895-.734h-.013a.643.643 0 0 0-.393.092l-12.982 7.204c-.445.275-.498.772-.118 1.113l10.375 8.343c.079.078.158.117.25.117Z" fill="#F9C973" fill-rule="nonzero"/><path d="m26.422 177.202 2.764-15.664a.556.556 0 0 0-.825-.576l-12.956 7.295a.559.559 0 0 0-.078.917l10.191 8.369a.565.565 0 0 0 .904-.34Z" fill="#FFF9B0"/></g><g><path d="m34.963 176.836-.943-.288-1.546 5.618.957.34c.039.014.091 0 .144-.012l4.702-2.083c.158-.078.145-.235.053-.314l-3.301-3.196c-.013-.039-.04-.052-.066-.065Z" fill="#BF2652"/><path d="m33.81 176.679-1.44 5.252a.19.19 0 0 0 .261.222l4.65-2.07a.191.191 0 0 0 .053-.313l-3.21-3.183a.192.192 0 0 0-.314.092Z" fill="#F95070"/></g></g></g></svg>