<svg width="18" height="16" xmlns="http://www.w3.org/2000/svg"><path d="M18 7.5c0-.738-.405-1.376-1-1.723V1c0-.273-.218-1-1-1a.998.998 0 0 0-.624.22l-2.658 2.125A7.585 7.585 0 0 1 8 4H2a2 2 0 0 0-2 2v3a2 2 0 0 0 2 2h1.053c-.043.328-.068.66-.068 1 0 1.243.29 2.417.799 3.467A.98.98 0 0 0 4.67 16h2.321c.815 0 1.303-.932.81-1.58A3.98 3.98 0 0 1 6.985 12c0-.347.05-.68.137-1H8c1.708 0 3.384.588 4.718 1.655l2.657 2.126A1 1 0 0 0 16 15c.778 0 1-.712 1-1V9.223c.595-.347 1-.985 1-1.723Zm-3 4.42-1.033-.827A9.588 9.588 0 0 0 8 9V6c2.16 0 4.28-.743 5.967-2.093L15 3.08v8.838Z" fill="#666" fill-rule="nonzero"/></svg>