<svg width="12" height="16" xmlns="http://www.w3.org/2000/svg"><path d="M11.781 3.281 8.721.22A.75.75 0 0 0 8.192 0H8v4h4v-.19a.748.748 0 0 0-.219-.529ZM7 4.25V0H.75A.748.748 0 0 0 0 .75v14.5c0 .416.334.75.75.75h10.5c.416 0 .75-.334.75-.75V5H7.75A.752.752 0 0 1 7 4.25Zm-5-2A.25.25 0 0 1 2.25 2h2.5a.25.25 0 0 1 .25.25v.5a.25.25 0 0 1-.25.25h-2.5A.25.25 0 0 1 2 2.75v-.5Zm0 2.5v-.5A.25.25 0 0 1 2.25 4h2.5a.25.25 0 0 1 .25.25v.5a.25.25 0 0 1-.25.25h-2.5A.25.25 0 0 1 2 4.75Zm4.5 8.246v.754a.25.25 0 0 1-.25.25h-.5a.25.25 0 0 1-.25-.25v-.76a1.79 1.79 0 0 1-.98-.354.25.25 0 0 1-.018-.38l.367-.35a.256.256 0 0 1 .317-.022c.12.075.258.116.4.116h.879c.203 0 .368-.185.368-.412 0-.186-.112-.35-.274-.398l-1.406-.422a1.414 1.414 0 0 1-.987-1.356c0-.766.596-1.389 1.334-1.408V7.25A.25.25 0 0 1 5.75 7h.5a.25.25 0 0 1 .25.25v.76c.353.017.696.14.98.354a.25.25 0 0 1 .018.38l-.367.35a.256.256 0 0 1-.317.022.75.75 0 0 0-.4-.116h-.879c-.203 0-.369.185-.369.412 0 .186.113.35.274.398l1.407.422c.58.174.986.732.986 1.356 0 .766-.595 1.389-1.333 1.408Z" fill="#666" fill-rule="nonzero"/></svg>