<?xml version="1.0" encoding="UTF-8"?>
<svg width="43px" height="48px" viewBox="0 0 43 48" version="1.1" xmlns="http://www.w3.org/2000/svg" xmlns:xlink="http://www.w3.org/1999/xlink">
    <title>noun_investment_3670227</title>
    <g id="MI" stroke="none" stroke-width="1" fill="none" fill-rule="evenodd">
        <g id="02-welcome_start-page" transform="translate(-209.000000, -536.000000)" fill="#37809F">
            <g id="block-1" transform="translate(138.000000, 238.000000)">
                <g id="block" transform="translate(0.000000, 245.000000)">
                    <g id="noun_investment_3670227" transform="translate(71.000000, 53.000000)">
                        <path d="M12.4473684,0 C11.8224405,0 11.315852,0.511712611 11.3157895,1.14288372 C11.3157895,4.95050476 12.7890272,8.78485963 15.7083934,11.4879905 C13.9862089,11.6364105 12.3465136,12.0783076 10.8461401,12.770386 C10.4633304,12.930085 10.1974778,13.2882371 10.1530252,13.7041384 C10.1085726,14.1200398 10.292622,14.5272441 10.6328676,14.765777 C10.9731132,15.0043098 11.4151959,15.036062 11.7854389,14.8485595 C13.3633352,14.120722 15.1159654,13.7134885 16.9736842,13.7134885 L26.0263158,13.7134885 C32.9417319,13.7134885 38.4736842,19.3007064 38.4736842,26.2852094 L38.4736842,30.2853024 C38.4679128,30.6974673 38.6823194,31.0808425 39.0348035,31.288626 C39.3872876,31.4964095 39.8232388,31.4964095 40.1757228,31.288626 C40.5282069,31.0808425 40.7426135,30.6974673 40.7369558,30.2853024 L40.7369558,26.2852094 C40.7369558,18.5044988 34.8271541,12.1329769 27.2905016,11.4857579 C30.2098876,8.78271044 31.6853138,4.9497716 31.6853155,1.14288372 C31.685253,0.511712611 31.1786645,0 30.5537366,0 L12.4473684,0 Z M13.8717876,2.28576738 L29.1293174,2.28576738 C28.7838883,5.97387599 27.0531535,9.51461203 23.4780532,11.4277211 L19.5230518,11.4277211 C15.9479515,9.51461203 14.2172167,5.97387541 13.8717876,2.28576738 Z M4.64345175,19.4132986 C4.189152,19.4073781 3.77533027,19.6763467 3.59254193,20.0964495 C2.74115664,21.979251 2.26315789,24.0768946 2.26315789,26.2852094 L2.26315789,41.375962 C0.956361868,41.8545325 0,43.0956831 0,44.5713489 C0,46.4510531 1.53362555,48 3.39473684,48 L39.6052632,48 C41.4663744,48 43,46.4510531 43,44.5713489 C43,43.0956831 42.0436393,41.8545325 40.7368421,41.375962 L40.7368421,38.2854884 C40.7426135,37.8733235 40.5282069,37.4899484 40.1757228,37.2821648 C39.8232388,37.0743813 39.3872876,37.0743813 39.0348035,37.2821648 C38.6823194,37.4899484 38.4679128,37.8733235 38.4736842,38.2854884 L38.4736842,42.2855814 C38.4737467,42.9167525 38.9803352,43.428402 39.6052632,43.4284651 C40.2517303,43.4284651 40.7368421,43.9184234 40.7368421,44.5713489 C40.7368421,45.2242743 40.2517303,45.7142326 39.6052632,45.7142326 L3.39473684,45.7142326 C2.74826918,45.7142326 2.26315789,45.2242743 2.26315789,44.5713489 C2.26315789,43.9184234 2.74826918,43.4284651 3.39473684,43.4284651 C4.01966475,43.428402 4.52625331,42.9167525 4.52631579,42.2855814 L4.52631579,26.2852094 C4.52631579,24.4089303 4.92952113,22.6387932 5.65015926,21.0451321 C5.8148066,20.6936774 5.79126928,20.2817919 5.58768066,19.9518027 C5.38409203,19.6218135 5.02837649,19.4189823 4.64345175,19.4132986 Z M28.2894737,22.8543262 C27.6642148,22.8543262 27.1573422,23.3662625 27.1573422,23.9977679 C27.1573422,24.6292733 27.6642148,25.1412096 28.2894737,25.1412096 L30.0851922,25.1412096 L23.7620529,31.5275187 L20.0369035,27.7651547 C19.5950451,27.3193369 18.8786391,27.3193369 18.4367807,27.7651547 L9.38193859,36.9059923 C8.31525966,37.9858814 9.91869797,39.600875 10.9853775,38.5209847 L19.2390521,30.1859698 L22.9642015,33.9483339 C23.4060604,34.3941516 24.1224659,34.3941516 24.5643248,33.9483339 L31.6853155,26.7562026 L31.6853155,28.5698608 C31.6762263,28.9842097 31.889894,29.3710737 32.2437438,29.5809436 C32.5975936,29.7908135 33.0361953,29.7908135 33.3900451,29.5809436 C33.7438949,29.3710737 33.9575627,28.9842097 33.9484734,28.5698608 L33.9484734,23.9972099 C33.9484109,23.3660388 33.4418224,22.8543262 32.8168945,22.8543262 L28.2894737,22.8543262 Z M32.8003185,30.8398798 C32.5002044,30.8444407 32.214128,30.9691089 32.0050239,31.1865813 C31.7959198,31.4040537 31.6809171,31.6965157 31.6853155,31.999628 L31.6853155,42.2844654 C31.6762263,42.6988143 31.889894,43.0856783 32.2437438,43.2955482 C32.5975936,43.5054181 33.0361953,43.5054181 33.3900451,43.2955482 C33.7438949,43.0856783 33.9575627,42.6988143 33.9484734,42.2844654 L33.9484734,31.999628 C33.9529561,31.6907105 33.8334302,31.3931174 33.61713,31.1746564 C33.4008298,30.9561953 33.1061803,30.8354752 32.8003185,30.8398798 L32.8003185,30.8398798 Z M28.2728977,32.5565604 C27.6492533,32.5658068 27.1505814,33.0829382 27.1578947,33.7128375 L27.1578947,42.2844654 C27.1487877,42.698826 27.3624514,43.0857087 27.7163085,43.2955898 C28.0701657,43.5054709 28.5087817,43.5054709 28.8626388,43.2955898 C29.216496,43.0857087 29.4301597,42.698826 29.4210526,42.2844654 L29.4210526,33.7128375 C29.4246323,33.4044968 29.3047077,33.1077764 29.0885078,32.890047 C28.8723079,32.6723177 28.5781769,32.5520534 28.2728977,32.5565604 L28.2728977,32.5565604 Z M19.2180562,33.1257702 C18.5943995,33.1374436 18.0976831,33.6565936 18.1074731,34.2865114 L18.1074731,42.2844654 C18.0804705,42.7094423 18.289627,43.1143427 18.6501905,43.3350973 C19.0107539,43.5558519 19.4629303,43.5558519 19.8234938,43.3350973 C20.1840572,43.1143427 20.3932137,42.7094423 20.3662111,42.2844654 L20.3662111,34.2865114 C20.3709956,33.9774019 20.2516029,33.6795176 20.0352692,33.4608124 C19.8189355,33.2421071 19.5241126,33.1212352 19.2180562,33.1257702 L19.2180562,33.1257702 Z M39.6052632,33.1425117 C39.3051498,33.1425117 39.0173283,33.2629222 38.805116,33.4772545 C38.5929038,33.6915868 38.4736842,33.9822837 38.4736842,34.2853954 C38.4736842,34.5885071 38.5929038,34.8792041 38.805116,35.0935363 C39.0173283,35.3078686 39.3051498,35.4282791 39.6052632,35.4282791 C39.9053765,35.4282791 40.1931981,35.3078686 40.4054103,35.0935363 C40.6176225,34.8792041 40.7368421,34.5885071 40.7368421,34.2853954 C40.7368421,33.9822837 40.6176225,33.6915868 40.4054103,33.4772545 C40.1931981,33.2629222 39.9053765,33.1425117 39.6052632,33.1425117 L39.6052632,33.1425117 Z M23.745477,35.4126536 C23.4453629,35.4170915 23.1592865,35.5417597 22.9501824,35.7592322 C22.7410783,35.9767046 22.6260756,36.2691666 22.630474,36.5722789 L22.630474,42.2844654 C22.6441037,42.9057983 23.1467149,43.4023086 23.7620529,43.4023086 C24.3773909,43.4023086 24.8800022,42.9057983 24.8936319,42.2844654 L24.8936319,36.5722789 C24.8981146,36.2633614 24.7785886,35.9657683 24.5622884,35.7473072 C24.3459882,35.5288462 24.0513388,35.4081261 23.745477,35.4126536 Z M14.6950554,37.1247471 C14.3947469,37.1291835 14.1085009,37.2540054 13.8993651,37.4717202 C13.6902292,37.689435 13.5753579,37.9821844 13.5800524,38.2854884 L13.5800524,42.2844654 C13.5709415,42.6988285 13.7846044,43.0857151 14.1384631,43.2955986 C14.4923218,43.505482 14.9309408,43.505482 15.2847995,43.2955986 C15.6386582,43.0857151 15.8523211,42.6988285 15.8432102,42.2844654 L15.8432102,38.2854884 C15.8479947,37.9763789 15.7286021,37.6784946 15.5122684,37.4597893 C15.2959346,37.2410841 15.0011118,37.1202122 14.6950554,37.1247471 L14.6950554,37.1247471 Z M10.1676346,39.9853045 C9.54399257,39.9939428 9.04483088,40.5105704 9.05152659,41.1404657 L9.05152659,42.2844654 C9.05152659,42.9159708 9.5583991,43.4279071 10.183658,43.4279071 C10.808917,43.4279071 11.3157895,42.9159708 11.3157895,42.2844654 L11.3157895,41.1404657 C11.3190689,40.8323174 11.1990117,40.5358875 10.9828452,40.3184018 C10.7666786,40.1009161 10.4727199,39.9808038 10.1676346,39.9853045 Z" id="Shape"></path>
                    </g>
                </g>
            </g>
        </g>
    </g>
</svg>