<?xml version="1.0" encoding="UTF-8"?>
<svg width="48px" height="48px" viewBox="0 0 48 48" version="1.1" xmlns="http://www.w3.org/2000/svg" xmlns:xlink="http://www.w3.org/1999/xlink">
    <title>noun_Network_3670233</title>
    <g id="MI" stroke="none" stroke-width="1" fill="none" fill-rule="evenodd">
        <g id="02-welcome_start-page" transform="translate(-402.000000, -536.000000)" fill="#37809F">
            <g id="block-1" transform="translate(138.000000, 238.000000)">
                <g id="block" transform="translate(196.000000, 245.000000)">
                    <g id="noun_Network_3670233" transform="translate(68.000000, 53.000000)">
                        <path d="M24,0 C22.1199897,0 20.5714286,1.54856006 20.5714286,3.42857143 C20.5714286,3.92817029 20.6834451,4.40278 20.879464,4.83258914 C19.329388,5.05516286 19.7299394,7.39132343 21.2656251,7.08482171 C22.17274,6.93532514 23.0866309,6.85737371 24,6.85714286 C33.480928,6.85474571 41.1428571,14.5187251 41.1428571,24 C41.1428571,33.4812754 33.4812754,41.1428571 24,41.1428571 C17.9155543,41.1428571 12.5897229,37.979084 9.54464286,33.2109377 C8.73430171,31.8842229 6.75578057,33.1474497 7.61830343,34.440848 C7.81491257,34.7487086 8.02229943,35.0491331 8.23549086,35.3448663 C7.78742229,35.5152377 7.37454,35.7764183 7.02901771,36.121652 C5.69889429,37.4511406 5.69889429,39.6414931 7.02901771,40.9709823 C8.35850629,42.3011057 10.54886,42.3011057 11.878348,40.9709823 C12.2315474,40.617952 12.487732,40.2034726 12.6529017,39.7611606 C15.0447537,41.4870823 17.8450131,42.6768543 20.878348,43.1685269 C20.682644,43.5979886 20.5714286,44.0722897 20.5714286,44.5714286 C20.5714286,46.4514389 22.1199897,48 24,48 C25.8800126,48 27.4285737,46.4514389 27.4285714,44.5714286 C27.428572,44.0744886 27.3180954,43.6019463 27.123884,43.1741074 C30.1566983,42.6820669 32.9541137,41.4855057 35.3459823,39.7589286 C35.5110846,40.2020703 35.7678663,40.6173651 36.121652,40.9709823 C37.4511406,42.3011057 39.6414931,42.3011057 40.9709823,40.9709823 C42.3011057,39.6414931 42.3011057,37.4511406 40.9709823,36.121652 C40.6246097,35.7755891 40.2100697,35.5142269 39.7600446,35.3437497 C41.4858451,32.9523211 42.682204,30.1558531 43.1741074,27.123884 C43.6019463,27.3180954 44.0744886,27.428572 44.5714286,27.4285714 C46.4514389,27.4285737 48,25.8800126 48,24 C48,22.1199897 46.4514389,20.5714286 44.5714286,20.5714286 C44.0744886,20.5714286 43.6019463,20.6819051 43.1741074,20.876116 C42.6821166,17.8433663 41.4852891,15.04604 39.7589286,12.6540177 C40.2020703,12.4889154 40.6173651,12.2321337 40.9709823,11.878348 C42.3011057,10.54886 42.3011057,8.35850629 40.9709823,7.02901771 C40.3403257,6.398924 39.487348,6.03836743 38.5959823,6.02566971 L38.5948394,6.02566971 C37.6693303,6.01219543 36.7764314,6.37477257 36.1216251,7.02901771 C35.7680691,7.38240514 35.511072,7.79739714 35.3459554,8.23995543 C32.9541251,6.513288 30.1567634,5.31631086 27.123884,4.82477657 C27.3179046,4.39712 27.428572,3.925248 27.4285714,3.42857143 C27.4285737,1.54856006 25.8800126,0 24,0 Z M24,2.28571429 C24.6447206,2.28571429 25.1428571,2.783852 25.1428571,3.42857143 C25.1428571,4.07329086 24.6447206,4.57142857 24,4.57142857 C23.3552817,4.57142857 22.8571429,4.07329086 22.8571429,3.42857143 C22.8571429,2.783852 23.3552817,2.28571429 24,2.28571429 Z M17.247768,5.873884 C17.0947103,5.87039829 16.9425166,5.89774686 16.8002234,5.95424114 C16.2139857,6.18841657 15.9286451,6.85354514 16.1629463,7.439732 C16.3971234,8.02535886 17.0614474,8.31056914 17.6473211,8.07700914 C18.2333863,7.84327314 18.5191526,7.17881771 18.2857143,6.59263371 C18.1154691,6.16634686 17.7066966,5.88328286 17.247768,5.873884 Z M9.504464,6.02566971 C8.57837943,6.01173829 7.68422857,6.37435314 7.02901771,7.02901771 C5.69889429,8.35850629 5.69889429,10.54886 7.02901771,11.878348 C7.38545886,12.23496 7.80423086,12.4926663 8.251116,12.6573663 C6.49986229,15.0845274 5.32389543,17.8967691 4.83482171,20.8805806 C4.40449943,20.6836726 3.92917371,20.5714286 3.42857143,20.5714286 C1.54856006,20.5714286 0,22.1199897 0,24 C0,25.8800126 1.54856006,27.4285737 3.42857143,27.4285714 C3.92721486,27.428572 4.40136114,27.3171154 4.83035714,27.121652 C4.86218,27.31676 4.89238914,27.5123703 4.92968743,27.7053571 C5.17735714,29.260472 7.52193086,28.8078874 7.17299086,27.2723211 C6.96763486,26.2097771 6.85602057,25.1173943 6.85714286,24.001116 C6.86295429,18.3369451 9.66688686,13.0443331 14.3482143,9.85491086 C15.3130554,9.21578914 14.8259709,7.71207486 13.6696429,7.76004457 C13.4509377,7.769096 13.2394314,7.84076171 13.060268,7.96651771 C12.9232549,8.05986571 12.7937571,8.16130971 12.6595983,8.25781257 C12.49502,7.80848571 12.2366846,7.38718286 11.878348,7.02901771 C11.248104,6.399324 10.3963663,6.03880057 9.50558057,6.02566971 L9.504464,6.02566971 Z M9.469864,8.311384 L9.47100686,8.311384 C9.76860171,8.31566971 10.051756,8.43472857 10.2623011,8.64508914 C10.7184606,9.10103029 10.7184606,9.806336 10.2623011,10.2622766 C9.80636057,10.718436 9.10105486,10.718436 8.64511371,10.2622766 C8.18895486,9.806336 8.18895486,9.10103029 8.64511371,8.64508914 C8.86406,8.42632571 9.16041943,8.30663086 9.46989086,8.311384 L9.469864,8.311384 Z M38.5624977,8.311384 L38.5636406,8.311384 C38.8614309,8.31555543 39.1442514,8.43459257 39.3549354,8.64508914 C39.8110943,9.10103029 39.8110943,9.806336 39.3549354,10.2622766 C38.8989926,10.718436 38.1936886,10.718436 37.737748,10.2622766 C37.2815891,9.806336 37.2815891,9.10103029 37.737748,8.64508914 C37.9565566,8.42646686 38.2532469,8.30678286 38.5625246,8.311384 L38.5624977,8.311384 Z M23.9977657,9.14174114 C15.805928,9.14174114 9.14173886,15.8059303 9.14173886,23.997768 C9.14173886,32.1896046 15.805928,38.8593749 23.9977657,38.8593749 C32.1896023,38.8593749 38.8593726,32.1896046 38.8593726,23.997768 C38.8593726,15.8059303 32.1896023,9.14174114 23.9977657,9.14174114 Z M22.8549086,11.7254463 L22.8549086,17.0870537 C21.7132017,16.9816971 20.5988651,16.720408 19.53906,16.3169646 C19.7337789,15.7821091 19.9425789,15.27332 20.1718726,14.814732 C20.9767617,13.2049537 21.9198526,12.1886971 22.8549086,11.7254463 Z M25.1417389,11.7254463 C26.0780086,12.1887646 27.0233154,13.2051177 27.8281229,14.814732 C28.0572223,15.2729314 28.2651611,15.7815063 28.4598194,16.315848 C27.3993217,16.7198474 26.2843286,16.9827189 25.1417389,17.0881697 L25.1417389,11.7254463 Z M18.8649531,12.5200891 C18.6040834,12.9223251 18.3550086,13.3413177 18.1305783,13.7901783 C17.8923086,14.2667183 17.6784086,14.7798583 17.47656,15.309152 C16.9692514,15.0004297 16.482156,14.6562417 16.0200869,14.2756697 C16.8796543,13.5700463 17.836004,12.9795777 18.8649531,12.5200891 Z M29.1361583,12.521232 C30.1634949,12.9802789 31.1190977,13.570236 31.9776766,14.2745806 C31.5165,14.6544743 31.0296863,14.9986291 30.5234354,15.3069463 C30.3218263,14.778496 30.108456,14.2660509 29.8705337,13.7902051 C29.6463589,13.3418566 29.3971131,12.9227309 29.1361583,12.521232 L29.1361583,12.521232 Z M33.6093726,15.8850714 C35.2277903,17.8002006 36.2812697,20.2074417 36.5189709,22.8549377 L31.97098,22.8549377 C31.8968286,20.9620651 31.6401983,19.1721829 31.22656,17.5402051 C32.0688874,17.069964 32.8670149,16.5165109 33.6093726,15.8850714 Z M14.3895069,15.8862143 C15.1326646,16.518148 15.9312857,17.07206 16.7745514,17.5424646 C16.3612229,19.1738829 16.1042514,20.9629 16.0301314,22.8549646 L11.4821429,22.8549646 C11.7196451,20.2077657 12.7722109,17.8012394 14.3895091,15.8862143 L14.3895069,15.8862143 Z M29.1060246,18.5156789 C29.4134966,19.8472154 29.617652,21.3087469 29.6852657,22.8549646 L25.1417389,22.8549646 L25.1417389,19.3795177 C26.5048246,19.2730851 27.837612,18.9815526 29.1060246,18.5156789 Z M18.8939709,18.5168217 C20.1611457,18.9818634 21.4932754,19.2720943 22.8549086,19.3784286 L22.8549086,22.8549914 L18.3158457,22.8549914 C18.3833491,21.3091863 18.5868783,19.8480743 18.8939709,18.5168217 Z M3.42857143,22.8571429 C4.07291029,22.8571429 4.57084114,23.3547189 4.57113499,23.9997194 C4.57142857,24.6447206 4.07329086,25.1428571 3.42857143,25.1428571 C2.783852,25.1428571 2.28571429,24.6447206 2.28571429,24 C2.28571429,23.3552817 2.783852,22.8571429 3.42857143,22.8571429 Z M44.5714286,22.8571429 C45.2161469,22.8571429 45.7142857,23.3552817 45.7142857,24 C45.7142857,24.6447206 45.2161469,25.1428571 44.5714286,25.1428571 C43.926708,25.1428571 43.4285714,24.6447206 43.4285714,24 C43.4285714,23.3552817 43.926708,22.8571429 44.5714286,22.8571429 Z M11.4821429,25.1417411 L16.0301337,25.1417411 C16.104352,27.0349297 16.3609034,28.8266709 16.7745537,30.4598217 C15.9319143,30.9301646 15.133232,31.4833034 14.3906251,32.1149554 C12.7723691,30.1987943 11.719728,27.7900354 11.4821429,25.1417411 Z M18.315848,25.1417411 L22.8549109,25.1417411 L22.8549109,28.621652 C21.4933617,28.72828 20.1621514,29.0190983 18.8950891,29.4843749 C18.58756,28.151284 18.3834171,26.6891909 18.315848,25.1417411 Z M25.1417411,25.1417411 L29.685268,25.1417411 C29.6176469,26.6882669 29.413488,28.149688 29.1060269,29.4821429 C27.8379086,29.0167926 26.5044251,28.7266366 25.1417411,28.620536 L25.1417411,25.1417411 Z M31.9709823,25.1417411 L36.5189731,25.1417411 C36.281292,27.789184 35.2275594,30.1968617 33.6093749,32.1127234 C32.8669429,31.4815457 32.0688863,30.9286977 31.2265623,30.4587051 C31.6400577,28.8258337 31.89678,27.0345263 31.9709823,25.1417411 Z M25.1417411,30.9118303 C26.2846326,31.0169686 27.4000817,31.2791869 28.4609377,31.6830354 C28.2662063,32.2179514 28.057332,32.7268537 27.8281251,33.185268 C27.0233177,34.7948823 26.0780109,35.8112354 25.1417411,36.2745537 L25.1417411,30.9118303 Z M22.8549109,30.9129731 L22.8549109,36.2745806 C21.9198549,35.8113297 20.976764,34.7950726 20.1718749,33.1852949 C19.9428617,32.7272686 19.7347046,32.2185817 19.5401783,31.6841789 C20.5996234,31.2805806 21.7135074,31.0186274 22.8549109,30.9129731 L22.8549109,30.9129731 Z M30.5245537,32.6919914 C31.0309457,33.0002446 31.5174829,33.3433886 31.9787949,33.7232411 C31.122812,34.4259903 30.1700463,35.0143503 29.1462051,35.4732411 C29.4042446,35.0745229 29.6484257,34.655184 29.870536,34.2109646 C30.1087446,33.7345469 30.3227474,33.2214246 30.5245537,32.6919914 L30.5245537,32.6919914 Z M17.4776789,32.6931343 C17.6793469,33.2220794 17.892572,33.7349749 18.1305806,34.2109914 C18.354224,34.6582789 18.6014691,35.078332 18.8616069,35.4788486 C17.8348474,35.0197086 16.8803674,34.4298749 16.0223211,33.7255 C16.4837429,33.3454046 16.9711371,33.001576 17.4776789,32.6931343 Z M9.46986629,37.4040714 L9.47100914,37.4040714 C9.768604,37.4084143 10.0517583,37.5274126 10.2623034,37.7377771 C10.7184629,38.1937177 10.7184629,38.8990217 10.2623034,39.3549646 C9.80636286,39.8111234 9.10105714,39.8111234 8.645116,39.3549646 C8.18895714,38.8990217 8.18895714,38.1937177 8.645116,37.7377771 C8.86406229,37.5190137 9.16042171,37.39932 9.46989314,37.4040714 L9.46986629,37.4040714 Z M38.5625,37.4040714 L38.5636429,37.4040714 C38.8614331,37.4081857 39.1442537,37.5272834 39.3549377,37.7377771 C39.8110966,38.1937177 39.8110966,38.8990217 39.3549377,39.3549646 C38.8989949,39.8111234 38.1936909,39.8111234 37.7377503,39.3549646 C37.2815914,38.8990217 37.2815914,38.1937177 37.7377503,37.7377771 C37.9565589,37.5191537 38.2532491,37.3994714 38.5625269,37.4040714 L38.5625,37.4040714 Z M24,43.4285714 C24.6447206,43.4285714 25.1428571,43.926708 25.1428571,44.5714286 C25.1428571,45.2161469 24.6447206,45.7142857 24,45.7142857 C23.3552817,45.7142857 22.8571429,45.2161469 22.8571429,44.5714286 C22.8571429,43.926708 23.3552817,43.4285714 24,43.4285714 Z" id="Shape"></path>
                    </g>
                </g>
            </g>
        </g>
    </g>
</svg>