<?xml version="1.0" encoding="UTF-8"?>
<svg width="48px" height="37px" viewBox="0 0 48 37" version="1.1" xmlns="http://www.w3.org/2000/svg" xmlns:xlink="http://www.w3.org/1999/xlink">
    <title>icon</title>
    <g id="MI" stroke="none" stroke-width="1" fill="none" fill-rule="evenodd">
        <g id="02-welcome_start-page" transform="translate(-598.000000, -547.000000)" fill="#37809F" fill-rule="nonzero">
            <g id="block-1" transform="translate(138.000000, 238.000000)">
                <g id="block" transform="translate(392.000000, 245.000000)">
                    <g id="icon" transform="translate(68.000000, 64.000000)">
                        <path d="M47.2,35 L0.8,35 C0.3581722,35 0,35.4477153 0,36 C0,36.5522847 0.3581722,37 0.8,37 L47.2,37 C47.6418278,37 48,36.5522847 48,36 C48,35.4477153 47.6418278,35 47.2,35 Z" id="Path"></path>
                        <path d="M45.6836515,8.34993742 C44.4049913,8.34993742 43.3606405,9.36520651 43.3606405,10.6082603 C43.3606405,10.8685857 43.4075024,11.122403 43.4945317,11.3566959 L36.7397245,18.9842303 C36.5991388,18.9581977 36.4518585,18.9451815 36.3045783,18.9451815 C35.7020682,18.9451815 35.133031,19.1729662 34.7045794,19.5634543 L26.1556311,17.0708385 C25.9146271,16.0750939 24.9907783,15.3266583 23.8928711,15.3266583 C23.4108631,15.3266583 22.9489387,15.4698373 22.5606544,15.7366708 L14.4870196,12.0335419 C14.3932958,10.8750939 13.3891124,9.95744681 12.1707032,9.95744681 C10.8920429,9.95744681 9.84769218,10.9727159 9.84769218,12.2157697 C9.84769218,12.5411765 9.9213323,12.8600751 10.0552234,13.146433 L3.86275893,21.4963705 C3.78242426,21.4898623 3.70208958,21.4833542 3.62175491,21.4833542 C2.34309467,21.4833542 1.2987439,22.4986233 1.2987439,23.7416771 C1.2987439,24.9847309 2.34309467,26 3.62175491,26 C4.90041514,26 5.94476591,24.9847309 5.94476591,23.7416771 C5.94476591,23.4162703 5.87112579,23.0973717 5.73723467,22.8110138 L11.9296992,14.4610763 C12.0100338,14.4675845 12.0903685,14.4740926 12.1707032,14.4740926 C12.6527112,14.4740926 13.1146356,14.3309136 13.5029199,14.0640801 L21.5765547,17.7607009 C21.6702784,18.9191489 22.6744619,19.836796 23.8928711,19.836796 C24.4953812,19.836796 25.0644184,19.6090113 25.49287,19.2185232 L34.0418183,21.7111389 C34.2828223,22.7068836 35.2066711,23.4553191 36.3045783,23.4553191 C37.5832385,23.4553191 38.6275893,22.4400501 38.6275893,21.1969962 C38.6275893,20.9366708 38.5807274,20.6828536 38.4936982,20.4485607 L45.2418108,12.8275344 C45.3823965,12.853567 45.5296768,12.8665832 45.676957,12.8665832 C46.9556172,12.8665832 48,11.8513141 48,10.6082603 C48.0066625,9.36520651 46.9623118,8.34993742 45.6836515,8.34993742 Z" id="Path"></path>
                        <path d="M4.63932745,13.5434293 C4.63932745,13.1984981 4.55899278,12.853567 4.39832343,12.5411765 L9.94141597,4.50362954 C9.99497241,4.51013767 10.0485289,4.51013767 10.1020853,4.51013767 C10.3363948,4.51013767 10.5640097,4.477597 10.78493,4.41251564 L16.5422484,9.64505632 C16.502081,9.81426783 16.4819974,9.98347935 16.4819974,10.159199 C16.4819974,11.4022528 17.5263481,12.4175219 18.8050084,12.4175219 C20.0836686,12.4175219 21.1280194,11.4022528 21.1280194,10.159199 C21.1280194,10.1266583 21.1280194,10.0876095 21.1280194,10.0550688 L28.3112782,5.60350438 C28.6393114,5.77271589 29.007512,5.85732165 29.3891017,5.85732165 C29.6033275,5.85732165 29.8175533,5.82478098 30.0250846,5.77271589 L36.0836579,11.506383 C36.0367961,11.6886108 36.0100178,11.8773467 36.0100178,12.0660826 C36.0100178,13.3091364 37.0543686,14.3244055 38.3330288,14.3244055 C39.6116891,14.3244055 40.6560398,13.3091364 40.6560398,12.0660826 C40.6560398,10.8230288 39.6116891,9.8077597 38.3330288,9.8077597 C38.118803,9.8077597 37.9045772,9.84030038 37.697046,9.89236546 L31.6384726,4.15869837 C31.6853345,3.97647059 31.7121127,3.78773467 31.7121127,3.59899875 C31.7121127,2.35594493 30.667762,1.34067584 29.3891017,1.34067584 C28.1104415,1.34067584 27.0660907,2.35594493 27.0660907,3.59899875 C27.0660907,3.63153942 27.0660907,3.67058824 27.0660907,3.70312891 L19.8895265,8.1612015 C19.5614932,7.99198999 19.1932926,7.90738423 18.8117029,7.90738423 C18.5773935,7.90738423 18.3497786,7.93992491 18.1288582,8.00500626 L12.3715399,2.77246558 C12.4117072,2.60325407 12.4317909,2.43404255 12.4317909,2.2583229 C12.4317909,1.01526909 11.3874401,0 10.1087799,0 C8.83011964,0 7.78576887,1.01526909 7.78576887,2.2583229 C7.78576887,2.60325407 7.8727981,2.94818523 8.02677289,3.26057572 L2.48368035,11.2981227 C2.4301239,11.2916145 2.37656745,11.2916145 2.323011,11.2916145 C1.04435077,11.2916145 0,12.3068836 0,13.5499374 C0,14.7929912 1.04435077,15.8082603 2.323011,15.8082603 C3.60167124,15.8017522 4.63932745,14.7929912 4.63932745,13.5434293 Z" id="Path"></path>
                    </g>
                </g>
            </g>
        </g>
    </g>
</svg>