<svg width="16" height="16" viewBox="0 0 16 16" fill="none" xmlns="http://www.w3.org/2000/svg">
<g clip-path="url(#clip0_240_144)">
<path fill-rule="evenodd" clip-rule="evenodd" d="M8.32747 1.12216C8.13954 0.959282 7.86047 0.959282 7.67254 1.12216L0.172543 7.62216C-0.0361352 7.80301 -0.0586908 8.11879 0.122163 8.32747C0.303017 8.53614 0.618795 8.5587 0.827473 8.37784L8.00001 2.16165L15.1725 8.37784C15.3812 8.5587 15.697 8.53614 15.8779 8.32747C16.0587 8.11879 16.0362 7.80301 15.8275 7.62216L8.32747 1.12216ZM7.67651 3.95209C7.86311 3.79376 8.13689 3.79376 8.32349 3.95209L13.8235 8.61876C13.9355 8.71376 14 8.85317 14 9.00001V13.1667C14 13.6529 13.8068 14.1192 13.463 14.463C13.1192 14.8069 12.6529 15 12.1667 15H3.83333C3.3471 15 2.88079 14.8069 2.53697 14.463C2.19315 14.1192 2 13.6529 2 13.1667V9.00001C2 8.85317 2.06455 8.71376 2.17651 8.61876L7.67651 3.95209ZM3 9.2315V13.1667C3 13.3877 3.0878 13.5997 3.24408 13.7559C3.40036 13.9122 3.61232 14 3.83333 14H6V9.5C6 9.22386 6.22386 9 6.5 9H9.5C9.77614 9 10 9.22386 10 9.5V14H12.1667C12.3877 14 12.5996 13.9122 12.7559 13.7559C12.9122 13.5997 13 13.3877 13 13.1667V9.2315L8 4.98907L3 9.2315ZM9 10V14H7V10H9Z" fill="#37809F"/>
</g>
<defs>
<clipPath id="clip0_240_144">
<rect width="16" height="16" fill="white"/>
</clipPath>
</defs>
</svg>
