<?xml version="1.0" encoding="UTF-8"?>
<svg width="48px" height="48px" viewBox="0 0 48 48" version="1.1" xmlns="http://www.w3.org/2000/svg" xmlns:xlink="http://www.w3.org/1999/xlink">
    <title>Shape</title>
    <g id="MI" stroke="none" stroke-width="1" fill="none" fill-rule="evenodd">
        <g id="02-welcome_start-page" transform="translate(-598.000000, -340.000000)" fill="#37809F">
            <g id="block-1" transform="translate(138.000000, 238.000000)">
                <g id="block" transform="translate(392.000000, 49.000000)">
                    <g id="noun_Store_3670151" transform="translate(68.000000, 53.000000)">
                        <path d="M12.5714286,0 C11.3125709,0 10.3095874,0.215551771 9.46205371,0.695312514 C8.61451943,1.1750732 7.98681886,1.82568029 7.19196457,2.620536 L4.90625029,4.90625029 C4.69192286,5.12054914 4.57148686,5.41120114 4.57142857,5.71428571 L4.57142857,6.85491086 L3.43080343,6.85491086 C1.5511436,6.85491086 0.00111605714,8.40493771 0.00111605714,10.2845983 L0.00111605714,10.2857143 L0,10.2857143 L0,14.8571429 C0,17.6117983 1.9695524,19.9240091 4.57142857,20.4564731 L4.57142857,41.1406251 L3.43080343,41.1406251 C1.55114291,41.1406251 0.00111605714,42.6906543 0.00111605714,44.5703126 C0.00111605714,46.4499731 1.55114291,48 3.43080343,48 L44.5703126,48 C46.4499754,48 48,46.4499754 48,44.5703126 C48,42.6906543 46.4499754,41.1406251 44.5703126,41.1406251 L43.4285714,41.1406251 L43.4285714,20.4564731 C46.0304469,19.9240091 48,17.6117983 48,14.8571429 L48,10.2845983 C48,8.40493714 46.4499731,6.85491086 44.5703126,6.85491086 L43.4285714,6.85491086 L43.4285714,5.71428571 C43.4285131,5.41120114 43.3080771,5.12054914 43.0937497,4.90625029 L40.8080354,2.620536 C39.9360274,1.74852869 39.3142011,1.09797286 38.4709823,0.631696457 C37.6277629,0.16542 36.6617126,0 35.4285714,0 L12.5714286,0 Z M12.5714286,2.28571429 L35.4285714,2.28571429 C36.4811463,2.28571429 36.9287766,2.39112 37.3638394,2.63169657 C37.7989017,2.87227371 38.3199583,3.3646 39.1919646,4.23660686 L41.1428571,6.1875 L41.1428571,6.85491086 L6.85714286,6.85491086 L6.85714286,6.1875 L8.80803543,4.23660686 C9.60289086,3.441752 10.1188457,2.94982 10.5881697,2.684152 C11.0574937,2.41848229 11.544572,2.28571429 12.5714286,2.28571429 Z M3.43080343,9.14174114 L44.5703126,9.14174114 C45.2232246,9.14174114 45.7131697,9.63168743 45.7131697,10.2845983 C45.7131697,10.9375086 45.2232246,11.4274554 44.5703126,11.4274554 L3.43080343,11.4274554 C2.77789257,11.4274554 2.28683029,10.9375091 2.28683029,10.2845983 C2.28683029,9.63168686 2.77789257,9.14174114 3.43080343,9.14174114 Z M2.28571429,13.5111606 C2.64496057,13.6404794 3.02964629,13.7142857 3.43080343,13.7142857 L9.14174114,13.7142857 L9.14285884,14.8683034 C9.144708,16.7821371 7.62972,18.2857143 5.71428571,18.2857143 C3.79508914,18.2857143 2.28571429,16.7763389 2.28571429,14.8571429 L2.28571429,13.5111606 Z M45.7142857,13.5111606 L45.7142857,14.8571429 C45.7142857,16.7763389 44.2049086,18.2857143 42.2857143,18.2857143 C40.3740617,18.2857143 38.8564309,16.7879257 38.8582572,14.879464 L38.8593749,13.7142857 L44.5703126,13.7142857 C44.9711034,13.7142857 45.3553189,13.6402543 45.7142857,13.5111606 Z M11.4285714,13.7142857 L18.2868303,13.7142857 L18.2868303,14.8571429 C18.2868303,16.7763389 16.77634,18.2868303 14.8571429,18.2868303 C12.941708,18.2868303 11.4256046,16.7821406 11.4274537,14.8683034 L11.4285714,13.7142857 Z M20.5736606,13.7142857 L27.4274554,13.7142857 L27.4274554,14.8571429 C27.4274554,16.7763389 25.9169646,18.2868303 23.997768,18.2868303 C22.0785691,18.2868303 20.5736606,16.7763389 20.5736606,14.8571429 L20.5736606,13.7142857 Z M29.7142857,13.7142857 L36.5714286,13.7142857 L36.5725731,14.8683034 C36.5744,16.7821389 35.0594331,18.2868303 33.144,18.2868303 C31.2247743,18.2868303 29.7142857,16.7763389 29.7142857,14.8571429 L29.7142857,13.7142857 Z M10.2857143,18.2678571 C11.330048,19.6626417 12.9890783,20.5736606 14.8571429,20.5736606 C16.7250886,20.5736606 18.3842257,19.6624909 19.4285714,18.2678571 C20.471684,19.6627937 22.1295829,20.5736606 23.997768,20.5736606 C25.8660709,20.5736606 27.5271206,19.6629451 28.5714286,18.2678571 C29.6157623,19.6626417 31.275908,20.5736606 33.1439731,20.5736606 C35.0117189,20.5736606 36.6710349,19.6633531 37.7154017,18.2689731 C38.5406474,19.3705891 39.7485531,20.1711343 41.1428571,20.4564731 L41.1428571,41.1406251 L32,41.1406251 L32,28.5703126 C32,26.690652 30.4499731,25.1417411 28.5703126,25.1417411 L19.4296874,25.1417411 C17.550028,25.1417411 16.001116,26.690652 16.001116,28.5703126 L16.001116,41.1406251 L6.85714286,41.1406251 L6.85714286,20.4564731 C8.25197486,20.1710263 9.46044971,19.3701217 10.2857143,18.2678571 Z M19.4296874,27.4274554 L28.5703126,27.4274554 C29.2232246,27.4274554 29.7142857,27.9174 29.7142857,28.5703126 L29.7142857,41.1406251 L18.2868303,41.1406251 L18.2868303,28.5703126 C18.2868303,27.9174 18.7767771,27.4274554 19.4296874,27.4274554 Z M3.43080343,43.4274554 L44.5703126,43.4274554 C45.2232246,43.4274554 45.7131697,43.9174046 45.7131697,44.5703126 C45.7131697,45.2232246 45.2232246,45.7131697 44.5703126,45.7131697 L3.43080343,45.7131697 C2.77789314,45.7131697 2.28683029,45.2232246 2.28683029,44.5703126 C2.28683029,43.9174046 2.77789314,43.4274554 3.43080343,43.4274554 Z" id="Shape"></path>
                    </g>
                </g>
            </g>
        </g>
    </g>
</svg>