<?xml version="1.0" encoding="UTF-8"?>
<svg width="48px" height="48px" viewBox="0 0 48 48" version="1.1" xmlns="http://www.w3.org/2000/svg" xmlns:xlink="http://www.w3.org/1999/xlink">
    <title>icon</title>
    <g id="MI" stroke="none" stroke-width="1" fill="none" fill-rule="evenodd">
        <g id="02-welcome_start-page" transform="translate(-990.000000, -536.000000)" fill="#FFFFFF">
            <g id="block-2" transform="translate(922.000000, 287.000000)">
                <g id="block" transform="translate(0.000000, 196.000000)">
                    <g id="icon" transform="translate(68.000000, 53.000000)">
                        <path d="M33.1453639,0.000282585972 C32.730928,-0.00891383005 32.3439763,0.206924335 32.134058,0.564380007 C31.9241397,0.921835679 31.9241397,1.3649112 32.134058,1.72236688 C32.3439763,2.07982255 32.730928,2.29566071 33.1453639,2.2864643 L34.9548965,2.2864643 L23.9972347,13.2440621 L22.5214775,11.7627323 C22.0751213,11.3168337 21.3514229,11.3168337 20.9050667,11.7627323 L14.0453645,18.6235106 C12.9678276,19.7035955 14.5875877,21.3188818 15.6651252,20.2387958 L21.7110396,14.1884517 L23.192378,15.6697815 C23.6387348,16.1156801 24.3613165,16.1156801 24.8076726,15.6697815 L36.5746566,3.89951756 L36.5746566,5.71238826 C36.5746566,6.34400816 37.0866887,6.85603726 37.7183123,6.85603726 C38.3499359,6.85603726 38.8619679,6.34400816 38.8619679,5.71238826 L38.8619679,1.14337347 C38.8619679,0.512087953 38.3501596,0.000345705056 37.7188704,0.000282585972 L33.1453639,0.000282585972 Z M18.2906774,0.00697748744 C8.20239678,0.00132074111 0,8.20898563 0,18.2964346 C0,28.3838796 8.20176408,36.588012 18.2895612,36.5858887 C22.2677853,36.5850503 26.0352645,35.28439 29.1121494,33.0215439 L30.3914367,34.299707 L29.9214716,34.7696694 C29.4759861,35.2159523 29.4759861,35.9386716 29.9214716,36.3849545 L40.1993029,46.6671913 C41.9763938,48.4442696 44.8900924,48.4442696 46.667181,46.6671913 C48.4442719,44.8901108 48.4442742,41.9808942 46.667181,40.203816 L36.3848847,29.9215797 C36.1666276,29.7044357 35.8700124,29.5845023 35.5621671,29.588922 C35.2647596,29.5924844 34.9804491,29.7118141 34.7695895,29.9215797 L34.2940432,30.3971233 L33.0192214,29.1245413 C33.8136296,28.043594 34.4971008,26.8666751 35.0475497,25.6037322 C35.2112799,25.2291348 35.1625381,24.7956216 34.919712,24.4667345 C34.676886,24.1378475 34.2769319,23.9636406 33.8707316,24.0098331 C33.4645313,24.0560256 33.1139053,24.3155874 32.9511265,24.6905992 C30.4074772,30.526716 24.655428,34.2983656 18.2895612,34.299707 C9.43789663,34.3015691 2.28619477,27.1483372 2.28619535,18.2964346 C2.28619477,9.44453027 9.43726736,2.28818865 18.2884444,2.29316224 C21.7429229,2.29510321 25.1043802,3.42561837 27.8685844,5.50252363 C28.1952161,5.74779519 28.6278878,5.80018053 29.0036163,5.6399466 C29.3793448,5.47971268 29.6410479,5.13120283 29.6901447,4.72569735 C29.7392415,4.32019187 29.5682729,3.9192967 29.2416412,3.67402517 C26.0843286,1.30175397 22.2429355,0.0092010382 18.2906774,0.00697748744 Z M18.2895612,4.57934378 C10.7270666,4.57797458 4.57239046,10.7342334 4.57239046,18.2964346 C4.57239046,25.8586346 10.7267883,32.0164241 18.2895612,32.0135262 C22.927991,32.0117471 27.2531772,29.6585774 29.7797006,25.7700611 C30.002667,25.4274736 30.0258028,24.9919231 29.8403841,24.627643 C29.6549655,24.263363 29.2891958,24.0257631 28.8809965,24.0044355 C28.4727972,23.9831079 28.0842582,24.1812966 27.8618864,24.5242704 C25.7547781,27.7672741 22.1558183,29.7258614 18.2895612,29.7273434 C11.9633975,29.7297194 6.85858558,24.6230894 6.85858558,18.2964346 C6.85858558,11.9697775 11.963118,6.86438039 18.2895612,6.86552577 C20.5548793,6.86594357 22.7683666,7.54158115 24.6502738,8.80453826 C24.9892091,9.03981659 25.4286252,9.07421011 25.8000399,8.89453155 C26.1714547,8.71485299 26.4172342,8.34898375 26.4431411,7.93720648 C26.4690479,7.5254292 26.271062,7.13164092 25.9250956,6.90682907 C23.6675923,5.39180957 21.0094143,4.57984582 18.2895612,4.57934378 Z M37.7010095,7.98615121 C37.0710168,7.99553852 36.5672688,8.51276361 36.5746566,9.14277714 L36.5746566,21.7201255 C36.5746566,22.3517454 37.0866887,22.8637745 37.7183123,22.8637745 C38.3499359,22.8637745 38.8619679,22.3517454 38.8619679,21.7201255 L38.8619679,9.14277714 C38.8655909,8.83418398 38.7442934,8.53723501 38.5256488,8.3194325 C38.3070041,8.10162999 38.0095882,7.98147835 37.7010095,7.98615121 Z M33.127503,10.2691235 C32.824334,10.2735622 32.5353455,10.398253 32.3241129,10.6157648 C32.1128803,10.8332766 31.9967069,11.1257917 32.0011501,11.4289589 L32.0011501,21.7201255 C32.0011501,22.3517454 32.5131822,22.8637745 33.1448058,22.8637745 C33.7764294,22.8637745 34.2884615,22.3517454 34.2884615,21.7201255 L34.2884615,11.4289589 C34.2929973,11.1197889 34.1721028,10.8219667 33.9533566,10.6034321 C33.7346104,10.3848976 33.4366704,10.2642903 33.127503,10.2691235 Z M28.5539966,13.6995123 C28.2508275,13.7039511 27.9618391,13.8286419 27.7506064,14.0461537 C27.5393738,14.2636655 27.4232005,14.5561806 27.4276437,14.8593478 L27.4276437,21.7201255 C27.4276437,22.3517454 27.9396757,22.8637745 28.5712993,22.8637745 C29.2029229,22.8637745 29.714955,22.3517454 29.714955,21.7201255 L29.714955,14.8593478 C29.7194908,14.5501777 29.5985963,14.2523556 29.3798501,14.033821 C29.1611039,13.8152864 28.8631639,13.6946792 28.5539966,13.6995123 L28.5539966,13.6995123 Z M23.9804901,17.1299012 C23.6773211,17.13434 23.3883326,17.2590308 23.1771,17.4765426 C22.9658674,17.6940544 22.849694,17.9865695 22.8541372,18.2897367 L22.8541372,21.7201255 C22.8541372,22.3517454 23.3661693,22.8637745 23.9977929,22.8637745 C24.6294165,22.8637745 25.1414485,22.3517454 25.1414485,21.7201255 L25.1414485,18.2897367 C25.1459843,17.9805666 25.0250898,17.6827445 24.8063436,17.4642099 C24.5875975,17.2456753 24.2896574,17.125068 23.9804901,17.1299012 Z M19.4114486,19.416083 C19.1080832,19.4205201 18.8189235,19.5453647 18.6076587,19.763119 C18.396394,19.9808732 18.2803534,20.2736757 18.2850957,20.5770347 L18.2850957,21.7201255 C18.2850957,22.3517454 18.7971277,22.8637745 19.4287513,22.8637745 C20.0603749,22.8637745 20.572407,22.3517454 20.572407,21.7201255 L20.572407,20.5770347 C20.5772479,20.2676725 20.4564881,19.9695589 20.2377079,19.7507801 C20.0189278,19.5320012 19.7208125,19.4112422 19.4114486,19.416083 Z M12.5684916,20.5748022 C11.9371765,20.5748022 11.4253941,21.0865813 11.4253941,21.7178931 C11.4253941,22.3492048 11.9371765,22.860984 12.5684916,22.860984 C13.1998068,22.860984 13.7115892,22.3492048 13.7115892,21.7178931 C13.7115892,21.0865813 13.1998068,20.5748022 12.5684916,20.5748022 L12.5684916,20.5748022 Z M31.5423485,30.8793647 L32.6776318,32.0135252 L32.0078481,32.683305 L30.8714485,31.5469121 C31.1001069,31.329774 31.3247227,31.108583 31.5423485,30.8793647 Z M35.5755625,32.3472986 L36.816895,33.5886239 L33.5851884,36.822544 L32.3427397,35.5801025 L35.5755625,32.3472986 Z M38.4333064,35.2050258 L45.0474209,41.8191017 C45.9570939,42.7287671 45.9570962,44.1422379 45.0474209,45.0519056 C44.1377478,45.9615733 42.7253874,45.9615733 41.8157143,45.0519056 L35.2015998,38.4378297 L38.4333064,35.2050258 Z" id="Shape"></path>
                    </g>
                </g>
            </g>
        </g>
    </g>
</svg>