<?xml version="1.0" encoding="UTF-8"?>
<svg width="44px" height="45px" viewBox="0 0 44 45" version="1.1" xmlns="http://www.w3.org/2000/svg" xmlns:xlink="http://www.w3.org/1999/xlink">
    <title>icon</title>
    <g id="MI" stroke="none" stroke-width="1" fill="none" fill-rule="evenodd">
        <g id="02-welcome_start-page" transform="translate(-992.000000, -342.000000)" fill="#FFFFFF" fill-rule="nonzero">
            <g id="block-2" transform="translate(922.000000, 287.000000)">
                <g id="icon" transform="translate(70.000000, 55.000000)">
                    <path d="M32.3892389,39.3995909 C32.3939053,36.322838 34.8895356,33.8319832 37.964406,33.8350908 C41.0392764,33.8382043 43.5298682,36.3341033 43.5283164,39.4108594 C43.5267631,42.4876154 41.0336536,44.981 37.9587816,44.981 C36.4805269,44.9798793 35.0632626,44.3912099 34.0187709,43.3444926 C32.9742793,42.2977753 32.3881196,40.8787516 32.3892389,39.3995909" id="Fill_18"></path>
                    <polygon id="Fill_21" points="26.7563291 44.7893636 29.5418038 44.7893636 29.5418038 14.0909091 26.7563291 14.0909091"></polygon>
                    <polygon id="Fill_23" points="21.1234177 44.7893636 23.9088924 44.7893636 23.9088924 14.0909091 21.1234177 14.0909091"></polygon>
                    <polygon id="Fill_24" points="15.4905063 44.7893636 18.275981 44.7893636 18.275981 14.0909091 15.4905063 14.0909091"></polygon>
                    <polygon id="Fill_25" points="0 14.0641364 43.863481 14.0641364 43.863481 11.2727273 0 11.2727273"></polygon>
                    <polygon id="Fill_26" points="0 8.42636364 43.863481 8.42636364 43.863481 5.63636364 0 5.63636364"></polygon>
                    <polygon id="Fill_27" points="0 2.79 43.863481 2.79 43.863481 0 0 0"></polygon>
                    <path d="M32.3892389,39.3995909 C32.3939053,36.322838 34.8895356,33.8319832 37.964406,33.8350908 C41.0392764,33.8382043 43.5298682,36.3341033 43.5283164,39.4108594 C43.5267631,42.4876154 41.0336536,44.981 37.9587816,44.981 C36.4805269,44.9798793 35.0632626,44.3912099 34.0187709,43.3444926 C32.9742793,42.2977753 32.3881196,40.8787516 32.3892389,39.3995909" id="Fill_38"></path>
                    <polygon id="Fill_39" points="26.7563291 44.7893636 29.5418038 44.7893636 29.5418038 14.0909091 26.7563291 14.0909091"></polygon>
                    <polygon id="Fill_40" points="21.1234177 44.7893636 23.9088924 44.7893636 23.9088924 14.0909091 21.1234177 14.0909091"></polygon>
                    <polygon id="Fill_41" points="15.4905063 44.7893636 18.275981 44.7893636 18.275981 14.0909091 15.4905063 14.0909091"></polygon>
                    <polygon id="Fill_42" points="0 14.0641364 43.863481 14.0641364 43.863481 11.2727273 0 11.2727273"></polygon>
                    <polygon id="Fill_43" points="0 8.42636364 43.863481 8.42636364 43.863481 5.63636364 0 5.63636364"></polygon>
                    <polygon id="Fill_44" points="0 2.79 43.863481 2.79 43.863481 0 0 0"></polygon>
                </g>
            </g>
        </g>
    </g>
</svg>