<?xml version="1.0" encoding="UTF-8"?>
<svg width="48px" height="41px" viewBox="0 0 48 41" version="1.1" xmlns="http://www.w3.org/2000/svg" xmlns:xlink="http://www.w3.org/1999/xlink">
    <title>icon</title>
    <g id="MI" stroke="none" stroke-width="1" fill="none" fill-rule="evenodd">
        <g id="02-welcome_start-page" transform="translate(-1186.000000, -540.000000)" fill="#FFFFFF" fill-rule="nonzero">
            <g id="block-2" transform="translate(922.000000, 287.000000)">
                <g id="block" transform="translate(196.000000, 196.000000)">
                    <g id="icon" transform="translate(68.000000, 57.000000)">
                        <path d="M42.8069199,38 L14,38 C14.2320907,38.6524758 14.2320907,39.3475242 14,40 L42.8069199,40 C43.4658398,40 44,39.5522847 44,39 C44,38.4477153 43.4658398,38 42.8069199,38 Z" id="Path"></path>
                        <path d="M5.7972028,39 C5.79935896,38.6615416 5.86761736,38.3249571 6,38 L4.3986014,38 C3.62617518,38 3,38.4477153 3,39 C3,39.5522847 3.62617518,40 4.3986014,40 L6,40 C5.86761736,39.6750429 5.79935896,39.3384584 5.7972028,39 L5.7972028,39 Z" id="Path"></path>
                        <circle id="Oval" cx="10" cy="39" r="2"></circle>
                        <path d="M44.4,34 L3.6,34 C1.6117749,34 0,32.3976507 0,30.4210526 L0,3.57894737 C0,1.60234932 1.6117749,0 3.6,0 L44.4,0 C46.3882251,0 48,1.60234932 48,3.57894737 L48,30.4210526 C48,32.3976507 46.3882251,34 44.4,34 Z M3.6,2.38596491 C2.9372583,2.38596491 2.4,2.92008135 2.4,3.57894737 L2.4,30.4210526 C2.4,31.0799186 2.9372583,31.6140351 3.6,31.6140351 L44.4,31.6140351 C45.0627417,31.6140351 45.6,31.0799186 45.6,30.4210526 L45.6,3.57894737 C45.6,2.92008135 45.0627417,2.38596491 44.4,2.38596491 L3.6,2.38596491 Z" id="Shape"></path>
                        <path d="M19,11.7853246 L19,22.2146754 C19.0023115,22.8974347 19.4211558,23.5195732 20.0799587,23.8188126 C20.7387615,24.1180519 21.5228978,24.0423276 22.101795,23.6235631 L29.2602764,18.4118726 C29.7271091,18.072483 30,17.5516302 30,17 C30,16.4483698 29.7271091,15.927517 29.2602764,15.5881274 L22.101795,10.3764369 C21.5228978,9.9576724 20.7387615,9.88194806 20.0799587,10.1811874 C19.4211558,10.4804268 19.0023115,11.1025653 19,11.7853246 Z" id="Path"></path>
                    </g>
                </g>
            </g>
        </g>
    </g>
</svg>